<?xml version="1.0" encoding="utf-8"?>
<!-- Generator: Adobe Illustrator 27.8.0, SVG Export Plug-In . SVG Version: 6.00 Build 0)  -->
<svg version="1.1" id="Layer_1" xmlns="http://www.w3.org/2000/svg" xmlns:xlink="http://www.w3.org/1999/xlink" x="0px" y="0px"
	 width="55.6px" height="55.6px" viewBox="0 0 55.6 55.6" style="enable-background:new 0 0 55.6 55.6;" xml:space="preserve">
<style type="text/css">
	.st0{fill:#337BAE;}
</style>
<g>
	<path class="st0" d="M0.5,23.9c0-5.7,0-11.5,0-17.2C0.5,3,3,0.5,6.7,0.5c11.5,0,23,0,34.5,0c3.7,0,6.2,2.5,6.2,6.2
		c0,7.6,0,15.3,0,22.9c0,1.6-1.3,2.5-2.6,2c-0.8-0.3-1.3-1-1.3-1.9c0-2,0-4.1,0-6.1c0-5.6,0-11.3,0-16.9c0-1.6-0.7-2.3-2.3-2.3
		c-11.5,0-22.9,0-34.4,0c-1.6,0-2.3,0.7-2.3,2.3c0,11.5,0,23,0,34.5c0,1.5,0.7,2.3,2.3,2.3c7.6,0,15.1,0,22.7,0c0.3,0,0.5,0,0.8,0
		c1,0.2,1.6,1.1,1.6,2c-0.1,1-0.9,1.7-1.8,1.8c-0.2,0-0.4,0-0.5,0c-7.5,0-15,0-22.6,0c-3.8,0-6.3-2.5-6.3-6.3
		C0.5,35.3,0.5,29.6,0.5,23.9z"/>
	<path class="st0" d="M18.2,29c0.2-0.2,0.3-0.4,0.4-0.6c3.2-3.2,6.4-6.4,9.6-9.6c1.1-1.1,2.1-1.1,3.3,0c2.6,2.6,5.2,5.2,7.7,7.8
		c0.2,0.2,0.4,0.5,0.4,0.7c0,4,0,8,0,12c0,0.1,0,0.1,0,0.2c-10.4,0-20.8,0-31.2,0c0-0.2,0-0.4,0-0.6c0-3.8,0-7.6,0-11.4
		c0-0.3,0.2-0.7,0.4-0.9c0.6-0.7,1.3-1.4,2-2c1-1,2-1,3,0C15.1,26,16.6,27.4,18.2,29z"/>
	<path class="st0" d="M47.3,47.3c0,1.9,0,3.7,0,5.5c0,0.3,0,0.5,0,0.8c-0.2,1-1.1,1.6-2.1,1.5c-1-0.1-1.8-0.9-1.8-1.9
		c0-1.7,0-3.5,0-5.2c0-0.2,0-0.4,0-0.7c-1,0-2,0-2.9,0c-1,0-1.9,0-2.9,0c-1.2,0-2-0.9-2-2c0-1.1,0.9-1.9,2-1.9c1.7,0,3.4,0,5.1,0
		c0.2,0,0.4,0,0.7,0c0-0.4,0-0.8,0-1.2c0-1.5,0-3,0-4.6c0-1.2,0.8-2.1,2-2.1c1.1,0,1.9,0.9,1.9,2.1c0,1.9,0,3.8,0,5.7
		c0.2,0,0.5,0,0.7,0c1.7,0,3.3,0,5,0c1.2,0,2.1,0.8,2.1,1.9c0,1.1-0.9,2-2.1,2C51.2,47.3,49.3,47.3,47.3,47.3z"/>
	<path class="st0" d="M13.2,13.1c0-2.7,2.2-4.9,4.9-4.9c2.7,0,4.9,2.2,4.8,4.9c0,2.7-2.2,4.8-4.9,4.8C15.4,18,13.2,15.8,13.2,13.1z"
		/>
</g>
</svg>
