<?xml version="1.0" encoding="utf-8"?>
<!-- Generator: Adobe Illustrator 27.8.0, SVG Export Plug-In . SVG Version: 6.00 Build 0)  -->
<svg version="1.1" id="Layer_1" xmlns="http://www.w3.org/2000/svg" xmlns:xlink="http://www.w3.org/1999/xlink" x="0px" y="0px"
	 width="40px" height="40px" viewBox="0 0 40 40" style="enable-background:new 0 0 40 40;" xml:space="preserve">
<style type="text/css">
	.st0{fill:#337BAE;}
</style>
<g>
	<path class="st0" d="M21.1,39.2c-0.7,0-1.4,0-2.1,0c-0.1,0-0.3-0.1-0.4-0.1c-0.8-0.1-1.7-0.2-2.5-0.4c-3.7-0.8-6.8-2.5-9.5-5.1
		c-3.1-3-4.9-6.7-5.6-10.9c-0.1-0.6-0.1-1.2-0.2-1.7c0-0.7,0-1.4,0-2.1c0-0.1,0.1-0.3,0.1-0.4C1,17.7,1,16.9,1.2,16.1
		c1.1-5,3.8-9,8-11.9c4.2-2.9,8.9-3.9,13.9-3.1c4.7,0.8,8.5,3,11.6,6.6c3.8,4.5,5.2,9.7,4.3,15.4c-0.6,4-2.4,7.5-5.2,10.4
		c-3,3.1-6.7,5-11,5.6C22.2,39.1,21.6,39.2,21.1,39.2z M12.5,16.4c0,0.1,0,0.2,0,0.4c0.2,2.3,0.3,4.6,0.5,6.9
		c0.2,2.2,0.3,4.5,0.5,6.7c0,0.6,0.4,0.9,1,0.9c3.7,0,7.5,0,11.2,0c0.6,0,0.9-0.4,1-0.9c0.1-0.6,0.1-1.2,0.1-1.8
		c0.3-3.8,0.6-7.5,0.8-11.3c0-0.3,0-0.6,0-0.9C22.5,16.4,17.5,16.4,12.5,16.4z M29,15.1c0-0.6,0-1.1,0-1.7c-0.1-0.7-0.7-1.2-1.3-1.2
		c-5.1,0-10.2,0-15.3,0c-0.7,0-1.3,0.5-1.3,1.2c-0.1,0.6,0,1.1,0,1.7C17,15.1,23,15.1,29,15.1z M16.2,10.9c2.5,0,5,0,7.5,0
		c0-0.5,0-1.1,0-1.6c0-0.4-0.3-0.6-0.6-0.6c-2.1,0-4.2,0-6.2,0c-0.4,0-0.6,0.2-0.6,0.6C16.2,9.8,16.2,10.3,16.2,10.9z"/>
	<path class="st0" d="M18.4,23.5c0,1.5,0,2.9,0,4.4c0,0.4-0.3,0.7-0.6,0.7c-0.3,0-0.6-0.2-0.6-0.6c0-0.1,0-0.3,0-0.4
		c0-2.2,0-4.4,0-6.6c0-0.5,0-1.1,0-1.6c0-0.1,0-0.2,0-0.3c0-0.4,0.3-0.7,0.7-0.7c0.4,0,0.6,0.3,0.6,0.7C18.4,20.6,18.4,22,18.4,23.5
		z"/>
	<path class="st0" d="M22.9,23.5c0,1.4,0,2.8,0,4.1c0,0.1,0,0.3,0,0.4c-0.1,0.3-0.3,0.5-0.6,0.5c-0.3,0-0.5-0.2-0.6-0.5
		c0-0.1,0-0.1,0-0.2c0-2.9,0-5.8,0-8.7c0-0.3,0.1-0.6,0.4-0.7c0.4-0.1,0.8,0.2,0.8,0.6c0,0.7,0,1.3,0,2
		C22.9,21.9,22.9,22.7,22.9,23.5z"/>
</g>
</svg>
