<?xml version="1.0" encoding="utf-8"?>
<!-- Generator: Adobe Illustrator 27.8.0, SVG Export Plug-In . SVG Version: 6.00 Build 0)  -->
<svg version="1.1" id="Layer_1" xmlns="http://www.w3.org/2000/svg" xmlns:xlink="http://www.w3.org/1999/xlink" x="0px" y="0px"
	 width="40px" height="40px" viewBox="0 0 40 40" style="enable-background:new 0 0 40 40;" xml:space="preserve">
<style type="text/css">
	.st0{fill:#337BAE;}
</style>
<g>
	<path class="st0" d="M19.3,0.5c0.5,0,0.9,0,1.4,0c0.2,0,0.4,0.1,0.6,0.1c0.7,0.1,1.5,0.1,2.2,0.3c4.6,0.9,8.4,3.1,11.4,6.7
		c3.9,4.7,5.3,10,4.3,16c-0.8,4.6-3,8.4-6.6,11.4c-4.4,3.7-9.4,5.1-15,4.5c-3.7-0.4-7-1.9-9.9-4.3c-4-3.4-6.4-7.7-7-12.9
		c-0.1-0.5-0.1-0.9-0.2-1.4c0-0.5,0-1,0-1.5c0-0.2,0.1-0.3,0.1-0.5c0.1-0.9,0.2-1.8,0.4-2.7C2,11,4.7,6.9,9,4
		c2.7-1.9,5.6-2.9,8.8-3.3C18.3,0.6,18.8,0.5,19.3,0.5z M20,13.5c-2.7,0-5.4,0-8.2,0c-0.6,0-0.7,0.1-0.6,0.7
		c0.1,1.6,0.2,3.3,0.2,4.9c0.1,2.2,0.2,4.4,0.4,6.6c0.1,1.7,0.2,3.4,0.3,5.1c0.1,1.1,0.6,1.6,1.8,1.6c3.2,0,6.3,0,9.5,0
		c1,0,2.1,0,3.1,0c0.8,0,1.4-0.5,1.5-1.3c0.1-1.3,0.2-2.6,0.2-3.9c0.1-1.6,0.2-3.2,0.2-4.9c0.1-2.7,0.3-5.4,0.4-8.1
		c0-0.6-0.1-0.7-0.7-0.7C25.4,13.5,22.7,13.5,20,13.5z M20,11.9c3.2,0,6.3,0,9.5,0c0.8,0,0.7,0.1,0.7-0.7c0-0.9-0.3-1.2-1.2-1.2
		c-2.1,0-4.1,0-6.2,0c-0.3,0-0.5-0.1-0.5-0.4C22,8.4,21.1,7.7,20,7.6c-1.1,0-2,0.8-2.2,1.9c-0.1,0.3-0.2,0.4-0.5,0.4
		c-1,0-1.9,0-2.9,0c-1.2,0-2.4,0-3.5,0c-0.7,0-1,0.4-1,1c0,0.1,0,0.3,0,0.4c0,0.5,0,0.5,0.5,0.5C13.6,11.9,16.8,11.9,20,11.9z"/>
	<path class="st0" d="M23.6,23c0-2,0.1-3.9,0.1-5.9c0-0.4,0.1-0.8,0.6-1c0.6-0.2,1.1,0.2,1.1,0.9c0,1.1-0.1,2.2-0.1,3.3
		c0,1.2-0.1,2.4-0.1,3.6c0,1.5-0.1,3-0.1,4.5c0,0.2,0,0.4,0,0.6c-0.1,0.5-0.4,0.7-0.9,0.7c-0.4,0-0.8-0.4-0.8-0.8c0-0.4,0-0.9,0-1.3
		c0-1.5,0-3,0-4.6C23.6,23,23.6,23,23.6,23z"/>
	<path class="st0" d="M16.4,23c0.1,1.8,0.1,3.6,0.2,5.4c0,0.3,0,0.6-0.1,0.9c-0.1,0.4-0.4,0.6-0.9,0.5c-0.4,0-0.6-0.3-0.7-0.6
		c0-0.1-0.1-0.3-0.1-0.5c-0.1-2.3-0.1-4.7-0.2-7c0-1.5-0.1-2.9-0.1-4.4c0-0.2,0-0.4,0.1-0.6c0.1-0.4,0.4-0.5,0.8-0.5
		c0.4,0,0.7,0.2,0.8,0.6c0,0.1,0.1,0.3,0.1,0.4C16.3,19.1,16.3,21.1,16.4,23z"/>
	<path class="st0" d="M19.2,22.9c0-2,0-3.9,0-5.9c0-0.5,0.3-0.8,0.7-0.9c0.5-0.1,1,0.3,1,0.9c0,1.2,0,2.4,0,3.7c0,2.7,0,5.4,0,8.2
		c0,0.6-0.3,0.9-0.7,0.9c-0.5,0-0.9-0.3-0.9-0.9c0-1.7,0-3.4,0-5.1C19.2,23.5,19.2,23.2,19.2,22.9z"/>
</g>
</svg>
