<?xml version="1.0" encoding="utf-8"?>
<!-- Generator: Adobe Illustrator 27.8.0, SVG Export Plug-In . SVG Version: 6.00 Build 0)  -->
<svg version="1.1" id="Layer_1" xmlns="http://www.w3.org/2000/svg" xmlns:xlink="http://www.w3.org/1999/xlink" x="0px" y="0px"
	 width="40px" height="40px" viewBox="0 0 40 40" style="enable-background:new 0 0 40 40;" xml:space="preserve">
<style type="text/css">
	.st0{fill:#FFFFFF;}
</style>
<g>
	<path class="st0" d="M25.4,1.5c0.6,0.3,0.8,0.7,0.8,1.4c0,0.7,0,1.4,0,2.2C22.1,5,18,5,13.9,5c0-0.3,0-0.6,0-1c0-0.4,0-0.8,0-1.2
		c-0.1-0.7,0.2-1.1,0.8-1.4C18.2,1.5,21.8,1.5,25.4,1.5z"/>
	<path class="st0" d="M32.4,14c-0.1,0.9-0.1,1.9-0.2,2.8c-0.2,2.2-0.3,4.4-0.5,6.6c-0.2,2.2-0.3,4.3-0.5,6.5
		c-0.2,2.1-0.3,4.3-0.5,6.4c0,0.3,0,0.6-0.1,0.9c-0.1,0.7-0.7,1.3-1.4,1.3c-0.1,0-0.3,0-0.4,0c-5.9,0-11.9,0-17.8,0
		c-1.2,0-1.8-0.6-1.9-1.8c-0.2-2.6-0.4-5.3-0.5-7.9c-0.2-2.3-0.3-4.6-0.5-6.9c-0.2-2.5-0.3-5-0.5-7.5c0-0.1,0-0.2,0-0.4
		C15.9,14,24.1,14,32.4,14z M15.2,25.7c0,2.4,0,4.8,0,7.2c0,0.7,0.4,1.2,1.1,1.2c0.6,0,1.1-0.5,1.1-1.2c0-4.8,0-9.5,0-14.3
		c0-0.1,0-0.2,0-0.3c-0.1-0.7-0.9-1.2-1.5-0.8c-0.4,0.2-0.6,0.6-0.6,1.1C15.2,20.9,15.2,23.3,15.2,25.7z M22.7,25.7c0,2,0,3.9,0,5.9
		c0,0.5,0,1,0,1.4c0,0.6,0.4,1,1,1.1c0.6,0,1-0.4,1.1-1c0-0.1,0-0.2,0-0.4c0-4.7,0-9.4,0-14c0-0.1,0-0.2,0-0.4
		c-0.1-0.7-0.7-1.1-1.4-0.9c-0.5,0.1-0.7,0.5-0.7,1.1C22.7,20.9,22.7,23.3,22.7,25.7z"/>
	<path class="st0" d="M34.8,11.9c-9.9,0-19.7,0-29.7,0c0-1,0-2,0.1-2.9c0.1-1,1.1-1.7,2.2-1.8c0.1,0,0.2,0,0.3,0
		c8.2,0,16.3,0,24.5,0c1.2,0,2.2,0.7,2.5,1.8c0.1,0.4,0.1,0.8,0.1,1.3C34.8,10.7,34.8,11.3,34.8,11.9z"/>
</g>
</svg>
