<?xml version="1.0" encoding="utf-8"?>
<!-- Generator: Adobe Illustrator 27.8.0, SVG Export Plug-In . SVG Version: 6.00 Build 0)  -->
<svg version="1.1" id="Layer_1" xmlns="http://www.w3.org/2000/svg" xmlns:xlink="http://www.w3.org/1999/xlink" x="0px" y="0px"
	 width="40px" height="40px" viewBox="0 0 40 40" style="enable-background:new 0 0 40 40;" xml:space="preserve">
<style type="text/css">
	.st0{fill:#FFFFFF;}
</style>
<g>
	<path class="st0" d="M0.1,12.4c13.3,0,26.5,0,39.8,0c0,0.2,0,0.5,0,0.6c0,7.1,0,14.4,0,21.4c0,2.1-1.3,3.8-3.5,4
		c-0.4,0-0.6,0.1-1,0.1c-10.5,0-21.1,0-31.7,0c-2.2,0-3.5-1.3-3.6-3.4c0-0.2,0-0.4,0-0.5c0-7.2,0-14.5,0-21.7
		C0.1,12.7,0.1,12.6,0.1,12.4z M29.4,17c-0.5,0-1.1,0-1.4,0c-0.6,0-1.1,0.5-1.1,1.1c0,1.1,0,2,0,3.1c0,0.6,0.4,1,1,1.1
		c1.1,0,2.2,0,3.1,0c0.6,0,1-0.4,1-1c0-1.1,0-2.1,0-3.1c0-0.6-0.5-1-1-1C30.3,16.9,30,17,29.4,17z M16.8,30.5c0,0.5,0,1,0,1.4v0.1
		c0,0.6,0.5,1,1,1c1.1,0,2.2,0,3.1,0c0.6,0,1-0.4,1-1c0-1.1,0-2.1,0-3.2c0-0.5-0.5-1-1-1c-1.1,0-2.2,0-3.1,0c-0.5,0-1,0.5-1,1
		C16.8,29.5,16.8,30.1,16.8,30.5z M31.9,30.5L31.9,30.5c0-0.5,0-1.1,0-1.4c0-0.6-0.4-1.1-1.1-1.1c-1.1,0-2.2,0-3.1,0
		c-0.6,0-1,0.4-1,1c0,1.1,0,2.1,0,3.1c0,0.5,0.5,1,1.1,1c1.1,0,2.2,0,3.1,0c0.6,0,1-0.4,1-1C31.9,31.5,31.9,31.1,31.9,30.5z
		 M16.8,19.4c0,0.5,0,1.1,0,1.4c0,0.6,0.4,1.1,1,1.1c1.1,0,2.2,0,3.1,0c0.6,0,0.8-0.4,1-1c0-1.1,0-2.1,0-3.1c0-0.6-0.5-1-1.1-1
		c-1.1,0-2,0-3.1,0c-0.6,0-1,0.5-1.1,1C16.8,18.4,16.8,18.9,16.8,19.4z M7.2,30.4c0,0.5,0,1,0,1.4c0,0.7,0.5,1.1,1.1,1.1
		c1,0,1.9,0,2.9,0c0.6,0,1.2-0.5,1.2-1.1c0-1,0-2,0-3c0-0.6-0.5-1-1.1-1c-1.1,0-2.2,0-3.1,0c-0.6,0-1,0.5-1,1.1
		C7.2,29.5,7.2,30.1,7.2,30.4z M9.8,17c-0.5,0-1.1,0-1.4,0c-0.6,0-1.1,0.5-1.1,1.1c0,1,0,2,0,3c0,0.6,0.4,1.1,1,1.1c1.1,0,2,0,3.1,0
		c0.6,0,1.1-0.5,1.1-1c0-1.1,0-2.1,0-3.1c0-0.5-0.5-0.8-1-1C10.7,16.9,10.1,17,9.8,17z"/>
	<path class="st0" d="M39.8,9.7c-13.3,0-26.4,0-39.7,0c0-1.4,0-2.9,0-4.3c0-0.4,0-0.6,0.1-1c0.2-1.4,1.3-3.1,3.5-3
		c1.2,0,2.2,0,3.3,0C7,1.8,7,1.9,7,2c0,1.1,0,2.1,0,3.1c0,0.8,0.5,1.3,1.3,1.3s1.3-0.5,1.3-1.3c0-1.2,0-2.3,0-3.6
		c6.6,0,13.1,0,19.8,0c0,0.1,0,0.4,0,0.5c0,1.1,0,2.1,0,3.1c0,0.6,0.4,1.1,1,1.3c0.5,0.1,1.1,0,1.3-0.5C31.9,5.7,32,5.3,32,5.1
		c0-1.1,0-2,0-3.1c0-0.1,0-0.4,0-0.5c-0.1,0.1-0.1,0-0.1,0c1.4,0,3-0.1,4.4,0.1c1.7,0.2,3.1,1.5,3.5,3.1c0,0.2,0,0.4,0,0.5
		C39.8,6.9,39.8,8.3,39.8,9.7z"/>
</g>
</svg>
