<?xml version="1.0" encoding="utf-8"?>
<!-- Generator: Adobe Illustrator 27.8.0, SVG Export Plug-In . SVG Version: 6.00 Build 0)  -->
<svg version="1.1" id="Layer_1" xmlns="http://www.w3.org/2000/svg" xmlns:xlink="http://www.w3.org/1999/xlink" x="0px" y="0px"
	 width="40px" height="40px" viewBox="0 0 40 40" style="enable-background:new 0 0 40 40;" xml:space="preserve">
<style type="text/css">
	.st0{fill:#337BAE;}
</style>
<g>
	<path class="st0" d="M3.4,13.5c11.1,0,22.2,0,33.3,0c0,0.2,0,0.4,0,0.5c0,6,0,12.1,0,18c0,1.8-1.1,3.2-2.9,3.4
		c-0.3,0-0.5,0.1-0.8,0.1c-8.8,0-17.7,0-26.5,0c-1.8,0-2.9-1.1-3-2.9c0-0.2,0-0.3,0-0.4c0-6.1,0-12.2,0-18.3
		C3.4,13.8,3.4,13.7,3.4,13.5z M27.9,17.4c-0.4,0-0.9,0-1.2,0c-0.5,0-0.9,0.4-0.9,0.9c0,0.9,0,1.7,0,2.6c0,0.5,0.3,0.8,0.8,0.9
		c0.9,0,1.8,0,2.6,0c0.5,0,0.8-0.3,0.8-0.8c0-0.9,0-1.8,0-2.6c0-0.5-0.4-0.8-0.8-0.8C28.7,17.3,28.4,17.4,27.9,17.4z M17.4,28.8
		c0,0.4,0,0.8,0,1.2v0.1c0,0.5,0.4,0.8,0.8,0.8c0.9,0,1.8,0,2.6,0c0.5,0,0.8-0.3,0.8-0.8c0-0.9,0-1.8,0-2.7c0-0.4-0.4-0.8-0.8-0.8
		c-0.9,0-1.8,0-2.6,0c-0.4,0-0.8,0.4-0.8,0.8C17.4,27.9,17.4,28.4,17.4,28.8z M30,28.8L30,28.8c0-0.4,0-0.9,0-1.2
		c0-0.5-0.3-0.9-0.9-0.9c-0.9,0-1.8,0-2.6,0c-0.5,0-0.8,0.3-0.8,0.8c0,0.9,0,1.8,0,2.6c0,0.4,0.4,0.8,0.9,0.8c0.9,0,1.8,0,2.6,0
		c0.5,0,0.8-0.3,0.8-0.8C30,29.6,30,29.3,30,28.8z M17.4,19.4c0,0.4,0,0.9,0,1.2c0,0.5,0.3,0.9,0.8,0.9c0.9,0,1.8,0,2.6,0
		c0.5,0,0.7-0.3,0.8-0.8c0-0.9,0-1.8,0-2.6c0-0.5-0.4-0.8-0.9-0.8c-0.9,0-1.7,0-2.6,0c-0.5,0-0.8,0.4-0.9,0.8
		C17.4,18.6,17.4,19,17.4,19.4z M9.3,28.7c0,0.4,0,0.8,0,1.2c0,0.6,0.4,0.9,0.9,0.9c0.8,0,1.6,0,2.4,0c0.5,0,1-0.4,1-0.9
		c0-0.8,0-1.7,0-2.5c0-0.5-0.4-0.8-0.9-0.8c-0.9,0-1.8,0-2.6,0c-0.5,0-0.8,0.4-0.8,0.9C9.3,27.9,9.3,28.4,9.3,28.7z M11.5,17.4
		c-0.4,0-0.9,0-1.2,0c-0.5,0-0.9,0.4-0.9,0.9c0,0.8,0,1.7,0,2.5c0,0.5,0.3,0.9,0.8,0.9c0.9,0,1.7,0,2.6,0c0.5,0,0.9-0.4,0.9-0.8
		c0-0.9,0-1.8,0-2.6c0-0.4-0.4-0.7-0.8-0.8C12.3,17.3,11.8,17.4,11.5,17.4z"/>
	<path class="st0" d="M36.6,11.3c-11.1,0-22.1,0-33.2,0c0-1.2,0-2.4,0-3.6c0-0.3,0-0.5,0.1-0.8c0.2-1.2,1.1-2.6,2.9-2.5
		c1,0,1.8,0,2.8,0c0,0.2,0,0.3,0,0.4c0,0.9,0,1.8,0,2.6c0,0.7,0.4,1.1,1.1,1.1s1.1-0.4,1.1-1.1c0-1,0-1.9,0-3c5.5,0,11,0,16.6,0
		c0,0.1,0,0.3,0,0.4c0,0.9,0,1.8,0,2.6c0,0.5,0.3,0.9,0.8,1.1c0.4,0.1,0.9,0,1.1-0.4c0.1-0.2,0.2-0.5,0.2-0.7c0-0.9,0-1.7,0-2.6
		c0-0.1,0-0.3,0-0.4C30,4.5,30,4.4,30,4.4c1.2,0,2.5-0.1,3.7,0.1c1.4,0.2,2.6,1.3,2.9,2.6c0,0.2,0,0.3,0,0.4
		C36.6,8.9,36.6,10.1,36.6,11.3z"/>
</g>
</svg>
