<?xml version="1.0" encoding="utf-8"?>
<!-- Generator: Adobe Illustrator 27.8.0, SVG Export Plug-In . SVG Version: 6.00 Build 0)  -->
<svg version="1.1" id="Layer_1" xmlns="http://www.w3.org/2000/svg" xmlns:xlink="http://www.w3.org/1999/xlink" x="0px" y="0px"
	 width="40px" height="40px" viewBox="0 0 40 40" style="enable-background:new 0 0 40 40;" xml:space="preserve">
<style type="text/css">
	.st0{fill:#337BAE;}
</style>
<g>
	<path class="st0" d="M1.1,12.6c12.6,0,25.2,0,37.8,0c0,0.2,0,0.4,0,0.6c0,6.8,0,13.7,0,20.5c0,2-1.3,3.6-3.3,3.9
		c-0.3,0-0.6,0.1-0.9,0.1c-10,0-20.1,0-30.1,0c-2,0-3.3-1.2-3.4-3.3c0-0.2,0-0.3,0-0.5c0-6.9,0-13.9,0-20.8
		C1.1,12.9,1.1,12.8,1.1,12.6z M29,17c-0.5,0-1,0-1.4,0c-0.6,0-1,0.4-1,1c0,1,0,1.9,0,2.9c0,0.6,0.3,0.9,0.9,1c1,0,2,0,3,0
		c0.6,0,0.9-0.3,0.9-0.9c0-1,0-2,0-3c0-0.6-0.4-0.9-0.9-0.9C29.9,16.9,29.5,17,29,17z M17.1,30c0,0.5,0,0.9,0,1.4c0,0,0,0.1,0,0.1
		c0,0.6,0.4,0.9,0.9,0.9c1,0,2,0,3,0c0.6,0,0.9-0.3,0.9-0.9c0-1,0-2.1,0-3.1c0-0.5-0.4-0.9-0.9-0.9c-1,0-2,0-3,0
		c-0.5,0-0.9,0.4-0.9,0.9C17.1,29,17.1,29.5,17.1,30z M31.4,30C31.4,30,31.4,30,31.4,30c0-0.5,0-1,0-1.4c0-0.6-0.3-1-1-1
		c-1,0-2,0-2.9,0c-0.6,0-0.9,0.3-0.9,0.9c0,1,0,2,0,3c0,0.5,0.4,0.9,1,0.9c1,0,2,0,2.9,0c0.6,0,0.9-0.3,0.9-0.9
		C31.4,30.9,31.4,30.5,31.4,30z M17.1,19.3c0,0.5,0,1,0,1.4c0,0.6,0.3,1,0.9,1c1,0,2,0,3,0c0.6,0,0.8-0.3,0.9-0.9c0-1,0-2,0-3
		c0-0.6-0.4-0.9-1-0.9c-1,0-1.9,0-2.9,0c-0.6,0-0.9,0.4-1,0.9C17.1,18.4,17.1,18.9,17.1,19.3z M7.8,29.9c0,0.5,0,0.9,0,1.4
		c0,0.7,0.4,1,1,1c0.9,0,1.8,0,2.7,0c0.6,0,1.1-0.4,1.1-1c0-0.9,0-1.9,0-2.8c0-0.6-0.4-0.9-1-0.9c-1,0-2,0-2.9,0
		c-0.6,0-0.9,0.4-0.9,1C7.8,29,7.8,29.5,7.8,29.9z M10.3,17c-0.5,0-1,0-1.4,0c-0.6,0-1,0.4-1,1c0,0.9,0,1.9,0,2.8c0,0.6,0.3,1,0.9,1
		c1,0,1.9,0,2.9,0c0.6,0,1-0.4,1-0.9c0-1,0-2,0-3c0-0.5-0.4-0.8-0.9-0.9C11.2,16.9,10.7,17,10.3,17z"/>
	<path class="st0" d="M38.8,10.1c-12.6,0-25.1,0-37.7,0c0-1.4,0-2.7,0-4.1c0-0.3,0-0.6,0.1-0.9c0.2-1.4,1.2-2.9,3.3-2.8
		c1.1,0,2.1,0,3.2,0c0,0.2,0,0.3,0,0.5c0,1,0,2,0,3c0,0.8,0.5,1.3,1.2,1.3c0.7,0,1.2-0.5,1.2-1.3c0-1.1,0-2.2,0-3.4
		c6.3,0,12.5,0,18.8,0c0,0.1,0,0.3,0,0.4c0,1,0,2,0,3c0,0.6,0.3,1,0.9,1.2c0.5,0.1,1,0,1.3-0.5c0.1-0.2,0.2-0.6,0.2-0.8
		c0-1,0-1.9,0-2.9c0-0.1,0-0.3,0-0.4c0.1,0,0.1-0.1,0.1-0.1c1.4,0,2.8-0.1,4.2,0.1c1.6,0.2,3,1.5,3.3,3c0,0.2,0,0.3,0,0.5
		C38.8,7.4,38.8,8.7,38.8,10.1z"/>
</g>
</svg>
