<?xml version="1.0" encoding="utf-8"?>
<!-- Generator: Adobe Illustrator 27.8.0, SVG Export Plug-In . SVG Version: 6.00 Build 0)  -->
<svg version="1.1" id="Layer_1" xmlns="http://www.w3.org/2000/svg" xmlns:xlink="http://www.w3.org/1999/xlink" x="0px" y="0px"
	 width="100px" height="100px" viewBox="0 0 100 100" style="enable-background:new 0 0 100 100;" xml:space="preserve">
<style type="text/css">
	.st0{fill:#337BAE;}
</style>
<g>
	<path class="st0" d="M3.1,32.2c31.4,0,62.5,0,93.8,0c0,0.5,0,1.2,0,1.4c0,16.7,0,33.9,0,50.4c0,5-3.1,9-8.3,9.4
		c-0.9,0-1.4,0.2-2.4,0.2c-24.8,0-49.7,0-74.7,0c-5.2,0-8.3-3.1-8.5-8c0-0.5,0-0.9,0-1.2c0-17,0-34.2,0-51.2
		C3.1,32.9,3.1,32.7,3.1,32.2z M72.2,43.1c-1.2,0-2.6,0-3.3,0c-1.4,0-2.6,1.2-2.6,2.6c0,2.6,0,4.7,0,7.3c0,1.4,0.9,2.4,2.4,2.6
		c2.6,0,5.2,0,7.3,0c1.4,0,2.4-0.9,2.4-2.4c0-2.6,0-5,0-7.3c0-1.4-1.2-2.4-2.4-2.4C74.3,42.8,73.6,43.1,72.2,43.1z M42.5,74.9
		c0,1.2,0,2.4,0,3.3v0.2c0,1.4,1.2,2.4,2.4,2.4c2.6,0,5.2,0,7.3,0c1.4,0,2.4-0.9,2.4-2.4c0-2.6,0-5,0-7.5c0-1.2-1.2-2.4-2.4-2.4
		c-2.6,0-5.2,0-7.3,0c-1.2,0-2.4,1.2-2.4,2.4C42.5,72.5,42.5,73.9,42.5,74.9z M78.1,74.9L78.1,74.9c0-1.2,0-2.6,0-3.3
		c0-1.4-0.9-2.6-2.6-2.6c-2.6,0-5.2,0-7.3,0c-1.4,0-2.4,0.9-2.4,2.4c0,2.6,0,5,0,7.3c0,1.2,1.2,2.4,2.6,2.4c2.6,0,5.2,0,7.3,0
		c1.4,0,2.4-0.9,2.4-2.4S78.1,76.3,78.1,74.9z M42.5,48.7c0,1.2,0,2.6,0,3.3c0,1.4,0.9,2.6,2.4,2.6c2.6,0,5.2,0,7.3,0
		c1.4,0,1.9-0.9,2.4-2.4c0-2.6,0-5,0-7.3c0-1.4-1.2-2.4-2.6-2.4c-2.6,0-4.7,0-7.3,0c-1.4,0-2.4,1.2-2.6,2.4
		C42.5,46.4,42.5,47.5,42.5,48.7z M19.8,74.6c0,1.2,0,2.4,0,3.3c0,1.7,1.2,2.6,2.6,2.6c2.4,0,4.5,0,6.8,0c1.4,0,2.8-1.2,2.8-2.6
		c0-2.4,0-4.7,0-7.1c0-1.4-1.2-2.4-2.6-2.4c-2.6,0-5.2,0-7.3,0c-1.4,0-2.4,1.2-2.4,2.6C19.8,72.5,19.8,73.9,19.8,74.6z M26,43.1
		c-1.2,0-2.6,0-3.3,0c-1.4,0-2.6,1.2-2.6,2.6c0,2.4,0,4.7,0,7.1c0,1.4,0.9,2.6,2.4,2.6c2.6,0,4.7,0,7.3,0c1.4,0,2.6-1.2,2.6-2.4
		c0-2.6,0-5,0-7.3c0-1.2-1.2-1.9-2.4-2.4C28.1,42.8,26.7,43.1,26,43.1z"/>
	<path class="st0" d="M96.7,25.8c-31.4,0-62.2,0-93.6,0c0-3.3,0-6.8,0-10.1c0-0.9,0-1.4,0.2-2.4C3.8,10,6.4,6,11.6,6.3
		c2.8,0,5.2,0,7.8,0c0,0.9,0,1.2,0,1.4c0,2.6,0,5,0,7.3c0,1.9,1.2,3.1,3.1,3.1s3.1-1.2,3.1-3.1c0-2.8,0-5.4,0-8.5
		c15.6,0,30.9,0,46.7,0c0,0.2,0,0.9,0,1.2c0,2.6,0,5,0,7.3c0,1.4,0.9,2.6,2.4,3.1c1.2,0.2,2.6,0,3.1-1.2c0.5-0.5,0.7-1.4,0.7-1.9
		c0-2.6,0-4.7,0-7.3c0-0.2,0-0.9,0-1.2c-0.2,0.2-0.2,0-0.2,0c3.3,0,7.1-0.2,10.4,0.2c4,0.5,7.3,3.5,8.3,7.3c0,0.5,0,0.9,0,1.2
		C96.7,19.2,96.7,22.5,96.7,25.8z"/>
</g>
</svg>
