<?xml version="1.0" encoding="utf-8"?>
<!-- Generator: Adobe Illustrator 27.8.0, SVG Export Plug-In . SVG Version: 6.00 Build 0)  -->
<svg version="1.1" id="Layer_1" xmlns="http://www.w3.org/2000/svg" xmlns:xlink="http://www.w3.org/1999/xlink" x="0px" y="0px"
	 width="40px" height="40px" viewBox="0 0 40 40" style="enable-background:new 0 0 40 40;" xml:space="preserve">
<style type="text/css">
	.st0{fill:#FFFFFF;}
	.st1{fill:#337BAE;}
</style>
<rect x="2.2" y="6.7" class="st0" width="35.8" height="29.8"/>
<path class="st0" d="M34.6,39c-9.8,0-19.6,0-29.4,0l-0.1-0.1c-2.5-0.3-4-2-4-3.9c0-9,0-18.1,0-27.1C1.1,5.7,3.1,4,6,4
	c0.8,0,1.6,0,2.4,0c0.7,0,1.3,0,2.1,0c0-0.5-0.1-0.9,0-1.4c0.1-0.4,0.2-0.7,0.5-1c0.2-0.2,0.6-0.3,1-0.5c5.3,0,10.6,0,15.9,0
	C29,1.3,29.5,2,29.4,2.9c0,0.3,0,0.7,0,1.1c0.2,0,0.4,0,0.6,0c1.3,0,2.6,0,3.9,0C35,4,36.1,4.2,37,4.8c1.3,0.8,1.9,1.9,1.9,3.2
	c0,6.9,0,13.8,0,20.7c0,2.2,0,4.3,0,6.5c0,1.3-0.6,2.4-2,3.1C36.2,38.6,35.4,38.7,34.6,39z M10.6,7c-0.1,0-0.2,0-0.2,0
	C9,7,7.7,7,6.3,7C5.3,7,5,7.3,5,8c0,9,0,18,0,27.1c0,0.8,0.3,1,1.3,1c9.2,0,18.3,0,27.5,0c0.9,0,1.3-0.3,1.3-1c0-9,0-18.1,0-27.1
	c0-0.7-0.3-1-1.3-1c-1.3,0-2.6,0-3.9,0c-0.1,0-0.3,0-0.4,0c0,0.4,0,0.8,0,1.3c0,1-0.8,1.6-2.1,1.7c-4.9,0-9.8,0-14.7,0
	c-1.3,0-2.1-0.6-2.1-1.6C10.5,7.8,10.6,7.4,10.6,7z M25.6,4c-3.7,0-7.4,0-11.1,0c0,1,0,1.9,0,2.8c3.7,0,7.4,0,11.1,0
	C25.6,5.9,25.6,5,25.6,4z"/>
<path class="st1" d="M17,26.6c0.2-0.2,0.2-0.5,0.5-0.6c3.2-3.1,6.4-6,9.6-9.1c0.7-0.7,1.5-0.9,2.5-0.7c1.5,0.5,2,2.1,1.1,3.3
	c-0.1,0.2-0.4,0.4-0.5,0.5c-3.8,3.5-7.4,7.1-11.2,10.6c-1.3,1.2-2.5,1.3-3.8,0c-1.8-1.8-3.7-3.4-5.4-5.2c-0.9-0.9-1.1-2.2-0.1-3.1
	c0.9-0.9,2.4-0.8,3.3,0c1.1,0.9,2.1,2,3.2,3.1C16.3,25.8,16.5,26.1,17,26.6z"/>
<rect x="13.6" y="4.2" class="st1" width="12.6" height="5.5"/>
</svg>
