<?xml version="1.0" encoding="utf-8"?>
<!-- Generator: Adobe Illustrator 27.8.0, SVG Export Plug-In . SVG Version: 6.00 Build 0)  -->
<svg version="1.1" id="Layer_1" xmlns="http://www.w3.org/2000/svg" xmlns:xlink="http://www.w3.org/1999/xlink" x="0px" y="0px"
	 width="35px" height="40px" viewBox="0 0 35 40" style="enable-background:new 0 0 35 40;" xml:space="preserve">
<style type="text/css">
	.st0{fill:#FFFFFF;}
	.st1{fill:#337BAE;}
</style>
<rect x="2.2" y="7.1" class="st0" width="30.3" height="29.8"/>
<path class="st0" d="M29.6,39.4c-8.2,0-16.4,0-24.6,0l-0.1-0.1c-2.1-0.3-3.3-2-3.3-3.9c0-9,0-18.1,0-27.1c0-2.2,1.7-3.9,4.1-3.9
	c0.7,0,1.3,0,2,0c0.6,0,1.1,0,1.8,0c0-0.5-0.1-0.9,0-1.4c0.1-0.4,0.2-0.7,0.4-1c0.2-0.2,0.5-0.3,0.8-0.5c4.4,0,8.9,0,13.3,0
	c0.9,0.2,1.3,0.9,1.3,1.8c0,0.3,0,0.7,0,1.1c0.2,0,0.3,0,0.5,0c1.1,0,2.2,0,3.3,0c0.9,0,1.8,0.2,2.6,0.8c1.1,0.8,1.6,1.9,1.6,3.2
	c0,6.9,0,13.8,0,20.7c0,2.2,0,4.3,0,6.5c0,1.3-0.5,2.4-1.7,3.1C30.9,39,30.2,39.1,29.6,39.4z M9.5,7.4c-0.1,0-0.2,0-0.2,0
	c-1.2,0-2.3,0-3.4,0c-0.8,0-1.1,0.3-1.1,1c0,9,0,18,0,27.1c0,0.8,0.3,1,1.1,1c7.7,0,15.3,0,23,0c0.8,0,1.1-0.3,1.1-1
	c0-9,0-18.1,0-27.1c0-0.7-0.3-1-1.1-1c-1.1,0-2.2,0-3.3,0c-0.1,0-0.3,0-0.3,0c0,0.4,0,0.8,0,1.3c0,1-0.7,1.6-1.8,1.7
	c-4.1,0-8.2,0-12.3,0c-1.1,0-1.8-0.6-1.8-1.6C9.4,8.2,9.5,7.8,9.5,7.4z M22,4.4c-3.1,0-6.2,0-9.3,0c0,1,0,1.9,0,2.8
	c3.1,0,6.2,0,9.3,0C22,6.3,22,5.4,22,4.4z"/>
<path class="st1" d="M14.9,25c0.2-0.2,0.2-0.4,0.4-0.5c2.6-2.5,5.1-4.8,7.7-7.3c0.6-0.6,1.2-0.7,2-0.6c1.2,0.4,1.6,1.7,0.9,2.7
	c-0.1,0.2-0.3,0.3-0.4,0.4c-3.1,2.8-5.9,5.7-9,8.5c-1,1-2,1-3.1,0c-1.4-1.4-3-2.7-4.3-4.2c-0.7-0.7-0.9-1.8-0.1-2.5
	c0.7-0.7,1.9-0.6,2.7,0c0.9,0.7,1.7,1.6,2.6,2.5C14.3,24.3,14.5,24.6,14.9,25z"/>
<rect x="11" y="5.1" class="st1" width="12.6" height="5.5"/>
</svg>
