<?xml version="1.0" encoding="utf-8"?>
<!-- Generator: Adobe Illustrator 27.8.0, SVG Export Plug-In . SVG Version: 6.00 Build 0)  -->
<svg version="1.1" id="Layer_1" xmlns="http://www.w3.org/2000/svg" xmlns:xlink="http://www.w3.org/1999/xlink" x="0px" y="0px"
	 width="200px" height="250px" viewBox="0 0 200 250" style="enable-background:new 0 0 200 250;" xml:space="preserve">
<style type="text/css">
	.st0{fill:#FFFFFF;}
</style>
<g>
	<path class="st0" d="M96.7,2.8c1.9,0,3.8,0,5.7,0c0.1,0.1,0.3,0.2,0.4,0.2c8.6,1.4,14.7,5.9,18.3,13.9c0.3,0.6,1.5,1.1,2.2,1.1
		c4.7,0.1,9.4,0,14.1,0.1c5.3,0,8.4,3.1,8.4,8.5c0,2.2,0,4.4,0,6.8c7.5,0,14.7,0,21.9,0c5.3,0,10.2,1.3,14.5,4.5
		c6.4,4.9,9.3,11.5,9.4,19.4c0,11.6,0,23.2,0,34.8c0,43.6,0,87.1,0,130.7c0,8.1-2.8,14.9-9.4,19.9c-3.3,2.5-7.2,3.6-11.1,4.5
		c-47.4,0-94.8,0-142.2,0c-4-0.9-7.8-2-11.1-4.5c-6.6-5-9.4-11.7-9.4-19.9c0-55,0-110.1,0-165.1c0-0.4,0-0.8,0-1.2
		c0.3-11,6.5-19.4,17.1-22.2c4-1,8.3-0.8,12.5-0.9c5.3-0.1,10.6,0,16.1,0c0-2.4,0-4.6,0-6.9c0-5.3,3.1-8.4,8.5-8.4
		c4.6,0,9.2-0.1,13.8,0c1.4,0,2-0.4,2.6-1.7c2.6-5.8,6.9-9.8,12.8-12.1C93.5,3.7,95.1,3.3,96.7,2.8z M54.2,48.6c-7.2,0-14.1,0-21,0
		c-6.8,0-9.6,2.7-9.6,9.5c0,54.7,0,109.4,0,164.2c0,6.9,2.7,9.6,9.7,9.6c44.5,0,88.9,0,133.4,0c7,0,9.6-2.7,9.6-9.7
		c0-54.6,0-109.3,0-163.9c0-0.6,0-1.1,0-1.7c-0.1-4.8-3.2-7.9-8-8c-6-0.1-11.9,0-17.9,0c-1.5,0-3,0-4.7,0c0,2.5,0,4.8,0,7.1
		c-0.1,4.9-3.1,8-8,8.1c-1.5,0-3,0-4.5,0c-23.4,0-46.8,0-70.2,0c-6,0-8.9-2.9-8.9-9C54.2,53,54.2,51,54.2,48.6z M69.6,48.5
		c20.4,0,40.6,0,60.8,0c0-5.1,0-10,0-15.1c-4.7,0-9.3,0-13.9,0c-5.6,0-8.3-2.5-8.9-8c-0.4-4.3-3.7-7.3-7.7-7.2
		c-4,0.1-7.1,3.1-7.5,7.2c-0.5,5.5-3.3,8-8.9,8c-4.6,0-9.2,0-13.9,0C69.6,38.5,69.6,43.4,69.6,48.5z"/>
	<path class="st0" d="M99.8,109.7c-14.6,0-29.3,0-43.9,0c-1,0-1.9,0-2.9-0.1c-3.8-0.6-6.6-3.8-6.5-7.6c0-3.8,2.9-7,6.7-7.5
		c0.9-0.1,1.7-0.1,2.6-0.1c29.4,0,58.8,0,88.2,0c0.5,0,1,0,1.4,0c4.5,0.1,7.8,3.4,7.8,7.6c0,4.3-3.3,7.6-7.8,7.6
		c-5.8,0.1-11.6,0-17.4,0C118.8,109.7,109.3,109.7,99.8,109.7z"/>
	<path class="st0" d="M100,155.5c-15.1,0-30.2,0-45.3,0c-5.9,0-9.6-5.2-7.6-10.3c1.2-3,3.9-4.9,7.5-4.9c5.2,0,10.3,0,15.5,0
		c24.5,0,49,0,73.5,0c0.7,0,1.4,0,2.1,0c4.5,0.2,7.8,3.4,7.8,7.7s-3.3,7.5-7.9,7.6C130.4,155.6,115.2,155.5,100,155.5z"/>
	<path class="st0" d="M99.8,201.4c-15,0-30.1,0-45.1,0c-5.9,0-9.6-5.2-7.6-10.3c1.3-3.2,3.8-4.8,7.2-4.9c3.7-0.1,7.5,0,11.2,0
		c26,0,52,0,78,0c0.8,0,1.6,0,2.4,0c4.3,0.2,7.6,3.5,7.5,7.7c0,4.2-3.3,7.5-7.6,7.6c-8.2,0.1-16.4,0-24.6,0
		C114.1,201.4,106.9,201.4,99.8,201.4z"/>
</g>
</svg>
