<?xml version="1.0" encoding="utf-8"?>
<!-- Generator: Adobe Illustrator 27.8.0, SVG Export Plug-In . SVG Version: 6.00 Build 0)  -->
<svg version="1.1" id="Layer_1" xmlns="http://www.w3.org/2000/svg" xmlns:xlink="http://www.w3.org/1999/xlink" x="0px" y="0px"
	 width="40px" height="40px" viewBox="0 0 40 40" style="enable-background:new 0 0 40 40;" xml:space="preserve">
<style type="text/css">
	.st0{fill:#337BAE;stroke:#FFFFFF;stroke-width:2;stroke-miterlimit:10;}
	.st1{fill:#FFFFFF;}
</style>
<circle class="st0" cx="20" cy="20" r="18.9"/>
<path class="st1" d="M15.7,23.9c0.3-0.3,0.3-0.7,0.7-0.8c4.5-4.3,8.9-8.4,13.4-12.7c1-1,2.1-1.3,3.5-1c2.1,0.7,2.8,2.9,1.5,4.6
	c-0.1,0.3-0.6,0.6-0.7,0.7c-5.3,4.9-10.3,9.9-15.6,14.8c-1.8,1.7-3.5,1.8-5.3,0c-2.5-2.5-5.2-4.7-7.5-7.2c-1.3-1.3-1.5-3.1-0.1-4.3
	c1.3-1.3,3.3-1.1,4.6,0c1.5,1.3,2.9,2.8,4.5,4.3C14.7,22.7,15,23.2,15.7,23.9z"/>
</svg>
