<?xml version="1.0" encoding="utf-8"?>
<!-- Generator: Adobe Illustrator 27.8.0, SVG Export Plug-In . SVG Version: 6.00 Build 0)  -->
<svg version="1.1" id="Layer_1" xmlns="http://www.w3.org/2000/svg" xmlns:xlink="http://www.w3.org/1999/xlink" x="0px" y="0px"
	 width="40px" height="40px" viewBox="0 0 40 40" style="enable-background:new 0 0 40 40;" xml:space="preserve">
<style type="text/css">
	.st0{fill:#337BAE;}
</style>
<g>
	<path class="st0" d="M20,38.3c-10,0-18.3-8.2-18.4-18.2C1.6,9.9,9.8,1.7,20,1.7C30,1.6,38.3,9.9,38.4,20
		C38.4,30.1,30.2,38.3,20,38.3z M21.7,14.5C21.7,14.5,21.7,14.5,21.7,14.5c0-1.5,0-3,0-4.5c0-1-0.7-1.7-1.6-1.7
		c-0.9,0-1.7,0.7-1.7,1.6c0,3.3,0,6.7,0,10c0,0.5,0.1,0.8,0.5,1.2c1.7,1.7,3.4,3.4,5.1,5c0.5,0.4,1,0.6,1.6,0.4
		c1.2-0.4,1.6-1.9,0.7-2.8c-1.4-1.4-2.8-2.8-4.2-4.2c-0.2-0.2-0.3-0.4-0.3-0.7C21.7,17.4,21.7,16,21.7,14.5z"/>
</g>
</svg>
