<?xml version="1.0" encoding="utf-8"?>
<!-- Generator: Adobe Illustrator 27.8.0, SVG Export Plug-In . SVG Version: 6.00 Build 0)  -->
<svg version="1.1" id="Layer_1" xmlns="http://www.w3.org/2000/svg" xmlns:xlink="http://www.w3.org/1999/xlink" x="0px" y="0px"
	 width="35.6px" height="35.5px" viewBox="0 0 35.6 35.5" style="enable-background:new 0 0 35.6 35.5;" xml:space="preserve">
<style type="text/css">
	.st0{fill:#FFFFFF;}
</style>
<g>
	<path class="st0" d="M0.5,31.3c0.2-1.1,0.9-1.8,1.6-2.5c3.6-3.6,7.2-7.2,10.8-10.7c0.1-0.1,0.2-0.2,0.4-0.2
		c-0.2-0.2-0.2-0.3-0.3-0.3C9.1,13.7,5.3,10,1.6,6.2C0.4,5,0.3,3.1,1.4,1.8c1.1-1.3,3-1.6,4.4-0.6C6,1.3,6.1,1.5,6.3,1.6
		C10,5.3,13.7,9,17.4,12.7c0.1,0.1,0.2,0.2,0.3,0.4c0.1-0.1,0.2-0.2,0.3-0.3c3.7-3.7,7.4-7.4,11.1-11.1C31-0.1,34,0.6,34.7,3
		c0.4,1.2,0.1,2.3-0.8,3.2c-3.7,3.7-7.4,7.4-11.1,11.1c-0.1,0.1-0.2,0.2-0.3,0.3c0.2,0.2,0.3,0.3,0.4,0.4c3.8,3.7,7.5,7.5,11.3,11.2
		c0.7,0.7,1.1,1.5,1.1,2.5c0,1.7-1.4,3.1-3.1,3.1c-1.2,0-2.1-0.4-2.9-1.2c-3.7-3.7-7.3-7.4-11-11c-0.1-0.1-0.2-0.2-0.3-0.4
		c-0.1,0.2-0.2,0.3-0.3,0.4c-3.7,3.7-7.5,7.5-11.2,11.2c-1.1,1.1-3.1,1.4-4.5,0.5c-0.7-0.4-1.1-1.1-1.3-1.9c0-0.1,0-0.1-0.1-0.2
		C0.5,31.9,0.5,31.6,0.5,31.3z"/>
</g>
</svg>
