<?xml version="1.0" encoding="utf-8"?>
<!-- Generator: Adobe Illustrator 27.8.0, SVG Export Plug-In . SVG Version: 6.00 Build 0)  -->
<svg version="1.1" id="Layer_1" xmlns="http://www.w3.org/2000/svg" xmlns:xlink="http://www.w3.org/1999/xlink" x="0px" y="0px"
	 width="40px" height="40px" viewBox="0 0 40 40" style="enable-background:new 0 0 40 40;" xml:space="preserve">
<style type="text/css">
	.st0{fill:#337BAE;}
</style>
<g>
	<path class="st0" d="M19.5,38.7c-2.3,0-4.5,0-6.8,0c-0.4,0-0.8,0-1.2-0.2c-1.1-0.3-1.9-1.4-1.9-2.7c0-2.4-0.1-4.8,0-7.2
		c0.1-3.8,1.7-6.8,4.7-8.7c1.3-0.8,2.6-1.2,4.1-1.3c1.6-0.1,3.3-0.2,4.9,0.3c3.5,0.9,6.4,4.7,6.8,8.7c0,0.5,0.1,1,0.1,1.5
		c0,2.2,0,4.3,0,6.5c0,0.5-0.2,1-0.3,1.4c-0.3,0.8-0.8,1.3-1.5,1.3c-1.3,0.1-2.6,0.2-3.9,0.3C22.9,38.8,21.2,38.8,19.5,38.7
		C19.5,38.8,19.5,38.8,19.5,38.7z"/>
	<path class="st0" d="M20,1.2c3.7,0,6.6,3.3,6.6,7.3c0,4-3,7.3-6.7,7.3c-3.6,0-6.6-3.3-6.6-7.3C13.4,4.5,16.3,1.2,20,1.2z"/>
	<path class="st0" d="M7.4,36C7.2,36,7.1,36,6.9,36c-1.4,0-2.7,0-4.1,0c-1.4,0-2.4-1.1-2.4-2.7c0-3,0-5.9,0-8.9
		c0-3.2,2.2-5.7,5.1-5.8c1.1,0,2.1,0.1,3.2,0.2c0.7,0.1,1.3,0.5,1.9,1.1c-0.2,0.2-0.3,0.4-0.4,0.5c-1.7,2.1-2.6,4.5-2.7,7.3
		c-0.1,2.6-0.1,5.1-0.1,7.7C7.4,35.7,7.4,35.8,7.4,36z"/>
	<path class="st0" d="M29.3,20c0.5-0.5,1.1-0.9,1.8-1c1.5-0.4,3-0.4,4.5,0c2.3,0.6,3.9,2.9,3.9,5.5c0,3,0,6,0,9
		c0,1.4-0.9,2.5-2.1,2.6c-1.5,0.1-3,0-4.5,0c-0.1,0-0.2,0-0.3-0.1c0-0.3,0-0.6,0-0.9c0-1.9,0-3.8,0-5.8c0-3.5-0.9-6.6-3.2-9.2
		C29.4,20.1,29.4,20,29.3,20z"/>
	<path class="st0" d="M6.6,6.6c2.3,0,4.2,2.1,4.2,4.6c0,2.6-1.9,4.6-4.2,4.6c-2.3,0-4.2-2.1-4.2-4.6C2.4,8.7,4.2,6.6,6.6,6.6z"/>
	<path class="st0" d="M33.4,6.6c2.3,0,4.2,2.1,4.2,4.6c0,2.6-1.9,4.6-4.2,4.6c-2.3,0-4.2-2.1-4.2-4.6C29.2,8.7,31.1,6.6,33.4,6.6z"
		/>
</g>
</svg>
