<?xml version="1.0" encoding="UTF-8"?>
<svg id="Layer_1" data-name="Layer 1" xmlns="http://www.w3.org/2000/svg" viewBox="0 0 35.61 35.52">
  <path d="m35.61,17.05v1.15c0,.1-.1.1-.1.19-.19,1.15-.67,2.01-1.44,2.78-4.31,4.22-8.53,8.53-12.84,12.84-2.01,2.01-4.89,2.01-6.99,0-4.22-4.31-8.53-8.62-12.74-12.84-2.01-2.01-2.01-4.98,0-6.99C5.72,9.87,10.03,5.65,14.25,1.44c1.92-1.92,5.17-1.92,7.09,0,4.22,4.22,8.53,8.53,12.74,12.74.38.38.67.77.86,1.15.29.57.48,1.15.67,1.72Z" fill="#337bae" stroke-width="0"/>
</svg>