<?xml version="1.0" encoding="utf-8"?>
<!-- Generator: Adobe Illustrator 27.8.0, SVG Export Plug-In . SVG Version: 6.00 Build 0)  -->
<svg version="1.1" id="Layer_1" xmlns="http://www.w3.org/2000/svg" xmlns:xlink="http://www.w3.org/1999/xlink" x="0px" y="0px"
	 width="40px" height="40px" viewBox="0 0 40 40" style="enable-background:new 0 0 40 40;" xml:space="preserve">
<style type="text/css">
	.st0{fill:#337BAE;}
</style>
<g>
	<path class="st0" d="M38.6,19.3c0,0.4,0,0.8,0,1.2c0,0.1-0.1,0.1-0.1,0.2c-0.2,1.2-0.7,2.1-1.5,2.9c-4.5,4.4-8.9,8.9-13.4,13.4
		c-2.1,2.1-5.1,2.1-7.3,0C11.9,32.5,7.4,28,3,23.6c-2.1-2.1-2.1-5.2,0-7.3C7.4,11.8,11.9,7.4,16.3,3c2-2,5.4-2,7.4,0
		c4.4,4.4,8.9,8.9,13.3,13.3c0.4,0.4,0.7,0.8,0.9,1.2C38.2,18.1,38.4,18.7,38.6,19.3z"/>
</g>
</svg>
