<?xml version="1.0" encoding="utf-8"?>
<!-- Generator: Adobe Illustrator 27.8.0, SVG Export Plug-In . SVG Version: 6.00 Build 0)  -->
<svg version="1.1" id="Layer_1" xmlns="http://www.w3.org/2000/svg" xmlns:xlink="http://www.w3.org/1999/xlink" x="0px" y="0px"
	 width="40px" height="40px" viewBox="0 0 40 40" style="enable-background:new 0 0 40 40;" xml:space="preserve">
<style type="text/css">
	.st0{fill:#00A651;}
</style>
<g>
	<path class="st0" d="M17.2,39.6c-4.8-0.7-8.9-2.9-12.1-6.6c-2.5-2.8-4-6.2-4.6-9.9c-0.1-0.5-0.1-1.1-0.2-1.6c0-0.1,0-0.2-0.1-0.4
		c0-0.7,0-1.4,0-2.2c0.1-0.6,0.1-1.2,0.2-1.8C1.1,12.3,3.3,8.3,7,5.1c2.8-2.5,6.2-4.1,9.9-4.6c7.1-1,13.2,1.2,18,6.5
		c2.8,3.1,4.4,6.9,4.8,11c0.5,5.9-1.2,11-5.2,15.4c-2.8,3.1-6.4,5.1-10.5,5.9c-0.8,0.2-1.7,0.2-2.6,0.4c-0.1,0-0.3,0.1-0.4,0.1
		c-0.7,0-1.4,0-2.2,0C18.3,39.7,17.8,39.7,17.2,39.6z M10.6,20c4.2,4.1,8.4,8.3,12.7,12.4c1.3-1.3,2.5-2.6,3.8-3.9
		c-2.9-2.8-5.8-5.7-8.7-8.5c2.9-2.8,5.8-5.7,8.7-8.5c-1.3-1.3-2.5-2.6-3.8-3.9C19,11.7,14.8,15.8,10.6,20z"/>
</g>
<ellipse class="st0" cx="19.8" cy="20.3" rx="10.6" ry="14.5"/>
</svg>
