<?xml version="1.0" encoding="utf-8"?>
<!-- Generator: Adobe Illustrator 27.8.0, SVG Export Plug-In . SVG Version: 6.00 Build 0)  -->
<svg version="1.1" id="Layer_1" xmlns="http://www.w3.org/2000/svg" xmlns:xlink="http://www.w3.org/1999/xlink" x="0px" y="0px"
	 width="40px" height="40px" viewBox="0 0 40 40" style="enable-background:new 0 0 40 40;" xml:space="preserve">
<style type="text/css">
	.st0{fill:#FFFFFF;}
	.st1{fill:#337BAE;}
</style>
<circle class="st0" cx="20" cy="20" r="19.6"/>
<g>
	<path class="st1" d="M20.2,6.9c0,0,0.1,0,0.1,0c0.7,0.2,1.2,0.8,1.2,1.5c0,1.9,0,3.9,0,5.8c0,1.8,0,3.7,0,5.5c0,0.1,0,0.2,0,0.3
		c0.1-0.1,0.2-0.1,0.2-0.2c0.9-0.9,1.7-1.7,2.6-2.6c0.9-0.8,2.3-0.4,2.5,0.7c0.1,0.6,0,1.1-0.5,1.5c-1.3,1.3-2.7,2.7-4,4
		c-0.4,0.4-0.8,0.8-1.2,1.2c-0.7,0.7-1.6,0.7-2.3,0c-1.8-1.8-3.5-3.5-5.3-5.3c-0.4-0.4-0.6-0.9-0.4-1.5c0.2-0.6,0.5-0.9,1.1-1.1
		c0.6-0.1,1.1,0,1.5,0.4c0.8,0.8,1.7,1.7,2.5,2.5c0.1,0.1,0.1,0.1,0.2,0.2c0,0,0,0,0.1,0c0-0.1,0-0.2,0-0.3c0-3.7,0-7.3,0-11
		c0-1,0.3-1.6,1.2-1.9C19.9,6.9,20.1,6.9,20.2,6.9z"/>
	<path class="st1" d="M32.1,29.9c-0.1,0.2-0.1,0.3-0.2,0.5c-0.3,0.5-0.7,0.7-1.3,0.8c-0.1,0-0.1,0-0.2,0c-7,0-14,0-21,0
		c-0.8,0-1.4-0.5-1.6-1.2c-0.2-0.9,0.5-1.8,1.4-1.8c0.1,0,0.2,0,0.3,0c6.9,0,13.8,0,20.7,0c1.1,0,1.5,0.3,1.9,1.3
		C32.1,29.5,32.1,29.7,32.1,29.9z"/>
</g>
</svg>
