<?xml version="1.0" encoding="utf-8"?>
<!-- Generator: Adobe Illustrator 27.8.0, SVG Export Plug-In . SVG Version: 6.00 Build 0)  -->
<svg version="1.1" id="Layer_1" xmlns="http://www.w3.org/2000/svg" xmlns:xlink="http://www.w3.org/1999/xlink" x="0px" y="0px"
	 width="20px" height="30px" viewBox="0 0 20 30" style="enable-background:new 0 0 20 30;" xml:space="preserve">
<style type="text/css">
	.st0{fill:#337BAE;}
</style>
<g>
	<path class="st0" d="M4.5,0.5C6.4,0.4,8.1,2,8.2,4c0.1,2-1.5,3.6-3.6,3.7C2.7,7.8,1,6.2,0.9,4.2C0.9,2.2,2.5,0.5,4.5,0.5z"/>
	<path class="st0" d="M11.8,4.1c0-2,1.6-3.6,3.6-3.6c2,0,3.6,1.6,3.6,3.6c0,2-1.6,3.6-3.6,3.6C13.5,7.7,11.8,6.1,11.8,4.1z"/>
	<path class="st0" d="M8.2,15.1c-0.1,2-1.7,3.6-3.7,3.6c-2,0-3.6-1.7-3.6-3.7c0.1-2,1.7-3.6,3.7-3.6C6.6,11.4,8.2,13.1,8.2,15.1z"/>
	<path class="st0" d="M15.6,18.6c-1.9,0.1-3.6-1.5-3.7-3.5c-0.1-1.9,1.5-3.6,3.5-3.7c1.9-0.1,3.6,1.5,3.7,3.5
		C19.2,16.8,17.6,18.5,15.6,18.6z"/>
	<path class="st0" d="M4.4,29.5c-2-0.1-3.6-1.8-3.5-3.7c0.1-2,1.8-3.6,3.7-3.5c2,0.1,3.6,1.8,3.5,3.7C8,28.1,6.4,29.6,4.4,29.5z"/>
	<path class="st0" d="M19.1,25.8c0.1,2-1.5,3.6-3.5,3.7c-1.9,0.1-3.6-1.5-3.7-3.5c-0.1-2,1.5-3.6,3.5-3.7
		C17.3,22.2,19,23.8,19.1,25.8z"/>
</g>
</svg>
