<?xml version="1.0" encoding="utf-8"?>
<!-- Generator: Adobe Illustrator 27.8.0, SVG Export Plug-In . SVG Version: 6.00 Build 0)  -->
<svg version="1.1" id="Layer_1" xmlns="http://www.w3.org/2000/svg" xmlns:xlink="http://www.w3.org/1999/xlink" x="0px" y="0px"
	 width="40px" height="40px" viewBox="0 0 40 40" style="enable-background:new 0 0 40 40;" xml:space="preserve">
<style type="text/css">
	.st0{fill:#FFFFFF;}
</style>
<g>
	<path class="st0" d="M0.5,21.6c0-1.1,0-2.1,0-3.2c0-0.1,0.1-0.2,0.1-0.2c0.1-0.7,0.2-1.3,0.3-2C2.5,7.4,10.4,0.7,19.4,0.5
		c4.1-0.1,7.9,0.8,11.3,3.2c6.7,4.6,9.6,11,8.7,19c-0.5,4.7-2.7,8.6-6.1,11.8c-2.9,2.7-6.4,4.3-10.3,4.9c-0.5,0.1-0.9,0.1-1.4,0.2
		c-1,0-2,0-3,0c-0.4-0.1-0.7-0.1-1.1-0.2c-4.3-0.6-8-2.4-11-5.4c-3.1-3.1-5-6.7-5.7-11.1C0.6,22.5,0.5,22,0.5,21.6z M21.4,13.2
		l-0.1,0.1c-3.2,3.2-6.4,6.4-9.6,9.7c-0.3,0.3-0.6,0.8-0.8,1.2c-0.6,1.7-1.1,3.5-1.6,5.2c-0.1,0.5,0,0.9,0.5,1.1
		c0.3,0.1,0.7,0.1,1,0c1.4-0.4,2.7-0.8,4.1-1.2c1-0.3,1.9-0.8,2.7-1.6c3-3,6-6,9-9c0.1-0.1,0.2-0.2,0.2-0.3
		C25,16.8,23.2,15,21.4,13.2z M27.9,17.4c0.8-0.7,1.6-1.4,2.3-2.2c0.8-0.9,0.7-2.3-0.1-3.2c-0.7-0.7-1.3-1.4-2-2
		c-0.9-0.8-2.2-0.9-3.1-0.2s-1.6,1.5-2.4,2.3C24.3,13.9,26.1,15.7,27.9,17.4z"/>
</g>
</svg>
