<?xml version="1.0" encoding="utf-8"?>
<!-- Generator: Adobe Illustrator 27.8.0, SVG Export Plug-In . SVG Version: 6.00 Build 0)  -->
<svg version="1.1" id="Layer_1" xmlns="http://www.w3.org/2000/svg" xmlns:xlink="http://www.w3.org/1999/xlink" x="0px" y="0px"
	 width="200px" height="175px" viewBox="0 0 200 175" style="enable-background:new 0 0 200 175;" xml:space="preserve">
<style type="text/css">
	.st0{fill:#FF0000;}
</style>
<g>
	<path class="st0" d="M8.8,145.5c0-1.9,0-3.8,0-5.7c0.9-4.2,2.3-8.3,4.5-12.1c15.7-27,31.3-54.1,47-81.2c5.8-10,11.4-20.1,17.5-29.9
		C84.6,5.9,99.6,2,111.1,7.3c5.8,2.7,10,6.9,13.1,12.3c15.7,27.1,31.4,54.2,47,81.4c3,5.1,6,10.2,8.9,15.4c4.1,7.5,9.5,14.3,11.1,23
		c0,1.9,0,3.8,0,5.7c-0.1,0.5-0.3,0.9-0.3,1.4c-0.6,3.8-1.8,7.4-3.9,10.6c-5.6,8.6-13.6,13-23.9,13c-42.2,0-84.3,0-126.5,0
		c-0.9,0-1.8,0-2.7-0.1c-10-1-17.5-5.8-22-14.7C10.4,152.2,9.8,148.7,8.8,145.5z M89.6,65.2c0.4,5.8,0.8,11.1,1.1,16.5
		c0.3,5.4,0.6,10.9,0.9,16.3c0.3,4.6,0.5,9.2,0.9,13.8c0.3,3,2.1,5,4.9,5.9c5.3,1.8,9.9-1.9,10.2-7.9c0.5-11.1,1.2-22.1,1.8-33.2
		c0.2-4.7,0.7-9.5,0.5-14.2c-0.3-5.8-6-9.9-11.7-8.9C92.8,54.6,89.4,59.4,89.6,65.2z M109.9,135.6c0-5.8-4.3-10.4-9.9-10.4
		c-5.5,0-10.2,4.7-10.2,10.2c0,5.5,4.6,10,10.1,10.1C105.4,145.5,110,141,109.9,135.6z"/>
</g>
</svg>
