<?xml version="1.0" encoding="utf-8"?>
<!-- Generator: Adobe Illustrator 27.8.0, SVG Export Plug-In . SVG Version: 6.00 Build 0)  -->
<svg version="1.1" id="Layer_1" xmlns="http://www.w3.org/2000/svg" xmlns:xlink="http://www.w3.org/1999/xlink" x="0px" y="0px"
	 width="40px" height="40px" viewBox="0 0 40 40" style="enable-background:new 0 0 40 40;" xml:space="preserve">
<style type="text/css">
	.st0{fill:#337BAE;}
</style>
<g>
	<path class="st0" d="M19.2,0.6c0.6,0,1.1,0,1.7,0c0.2,0,0.3,0.1,0.5,0.1c0.7,0.1,1.5,0.1,2.2,0.3C28,1.9,31.8,4,34.8,7.6
		c2.4,2.8,3.8,6,4.3,9.7c0.1,0.7,0.2,1.3,0.2,2c0,0.5,0,1,0,1.5c0,0.2-0.1,0.4-0.1,0.6c-0.1,0.7-0.1,1.5-0.3,2.2
		c-0.7,3.9-2.4,7.3-5.3,10.1c-4.9,4.9-10.9,6.7-17.7,5.4c-5.1-1-9.1-3.7-12-8c-3-4.4-4-9.2-3.1-14.5C1.6,13,3.1,9.9,5.5,7.2
		c3.1-3.5,7-5.6,11.7-6.3C17.9,0.8,18.5,0.7,19.2,0.6z M17.1,16.7c0.1,1.5,0.1,3,0.2,4.5c0,1.6,1.2,2.8,2.8,2.8
		c1.5,0,2.7-1.2,2.7-2.7c0-0.9,0.1-1.8,0.1-2.7c0.1-2.1,0.2-4.2,0.2-6.3c0-1.3-0.9-2.4-2.2-2.7c-0.4-0.1-0.9-0.1-1.3-0.1
		c-1.5,0-2.8,1.2-2.7,2.8C16.9,13.7,17,15.2,17.1,16.7z M20,30.6c1.5,0,2.8-1.2,2.8-2.7c0-1.5-1.2-2.8-2.7-2.8
		c-1.5,0-2.8,1.2-2.8,2.7C17.2,29.4,18.5,30.6,20,30.6z"/>
</g>
</svg>
