<?xml version="1.0" encoding="utf-8"?>
<!-- Generator: Adobe Illustrator 27.8.0, SVG Export Plug-In . SVG Version: 6.00 Build 0)  -->
<svg version="1.1" id="Layer_1" xmlns="http://www.w3.org/2000/svg" xmlns:xlink="http://www.w3.org/1999/xlink" x="0px" y="0px"
	 width="40px" height="40px" viewBox="0 0 40 40" style="enable-background:new 0 0 40 40;" xml:space="preserve">
<style type="text/css">
	.st0{fill:#337BAE;}
	.st1{fill:#FFFFFF;}
</style>
<circle class="st0" cx="20" cy="20" r="19.7"/>
<g>
	<path class="st1" d="M8.3,19.8c0.2-0.4,0.5-0.7,0.7-1.1c1.5-1.8,3.2-3.3,5.3-4.3c1.4-0.7,2.9-1.2,4.5-1.3c3.1-0.3,5.9,0.5,8.4,2.2
		c1.7,1.1,3,2.5,4.3,4.1c0.3,0.4,0.3,0.8,0,1.2c-1.4,1.8-3,3.4-5,4.6c-1.6,1-3.4,1.6-5.3,1.8c-2.8,0.3-5.3-0.4-7.7-1.8
		c-2-1.2-3.6-2.7-5-4.5c-0.1-0.1-0.1-0.3-0.2-0.4C8.3,20.1,8.3,19.9,8.3,19.8z M19.8,15.1c-2.7,0-4.8,2.3-4.8,5.1
		c0,2.7,2.3,4.8,5.1,4.8c2.7,0,4.8-2.3,4.8-5.1C24.9,17.2,22.6,15,19.8,15.1z"/>
	<path class="st1" d="M22.7,20c0,1.5-1.2,2.7-2.7,2.6c-1.4,0-2.6-1.2-2.6-2.7c0-1.5,1.2-2.6,2.7-2.6C21.5,17.4,22.7,18.6,22.7,20z"
		/>
</g>
</svg>
