<?xml version="1.0" encoding="utf-8"?>
<!-- Generator: Adobe Illustrator 27.8.0, SVG Export Plug-In . SVG Version: 6.00 Build 0)  -->
<svg version="1.1" id="Layer_1" xmlns="http://www.w3.org/2000/svg" xmlns:xlink="http://www.w3.org/1999/xlink" x="0px" y="0px"
	 width="200px" height="175px" viewBox="0 0 200 175" style="enable-background:new 0 0 200 175;" xml:space="preserve">
<style type="text/css">
	.st0{fill:#337BAE;}
</style>
<g>
	<path class="st0" d="M182.4,75.9c-0.5,2.9-0.9,5.8-1.5,8.7c-1.2,5.7-3.4,11-6.5,16c-0.5,0.9-0.6,1.6-0.2,2.5
		c1.2,3.3,2.3,6.7,3.5,10c0.5,1.4,0.6,2.6-0.4,3.8c-1.1,1.2-2.4,1.3-3.8,0.8c-3.2-0.9-6.5-1.8-9.8-2.5c-0.6-0.1-1.5,0-2,0.4
		c-8.1,6.5-17.1,10.7-27.4,12.2c-0.6,0.1-1.4,0.6-1.7,1.2c-10.1,16.9-24.7,27.4-44.1,30.4c-17.7,2.8-33.7-1.7-47.8-12.8
		c-1.1-0.9-2-1-3.3-0.7c-3.5,1-7,1.9-10.6,2.8c-3,0.7-5-1.4-4-4.3c1.3-3.9,2.7-7.7,3.9-11.6c0.2-0.7,0.1-1.7-0.2-2.3
		C8,99.2,19.6,59.8,52,43.7c7.8-3.9,16-6,24.7-6.2c2.2,0,3.6-0.7,5.1-2.4C92,23,105.1,16.3,120.9,15c24.5-1.9,46.9,11.5,56.8,34
		c2.4,5.5,3.9,11.2,4.4,17.2c0,0.4,0.2,0.8,0.3,1.2C182.4,70.3,182.4,73.1,182.4,75.9z M30.6,141c2.4-0.6,4.4-1,6.4-1.7
		c2.7-1,4.6-0.3,6.8,1.5c13.5,11.1,28.9,15.2,46,11.8c29.4-5.9,48.2-33.4,43.4-63c-5.3-32.7-39.5-53.5-71-43.1
		c-34.5,11.4-48.8,51.3-29.3,82c1,1.5,1.1,2.9,0.5,4.5C32.4,135.5,31.6,138.1,30.6,141z M87.8,38c19.4,3.4,34.2,13.1,44.1,29.9
		c9.9,16.8,10.9,34.5,4.5,52.9c0.7-0.1,1.2-0.2,1.8-0.4c7.6-1.9,14.3-5.5,20.1-10.6c1.7-1.5,3.3-2,5.4-1.3c1.9,0.7,3.9,1,5.9,1.5
		c0-0.4,0-0.5-0.1-0.6c-0.6-1.9-1.2-3.8-1.9-5.6c-0.9-2-0.6-3.7,0.6-5.6c7.2-11.5,9.5-24,6.6-37.2c-7.4-33.6-44.4-50.1-74.5-33.3
		C95.7,30.5,91.6,33.7,87.8,38z"/>
	<path class="st0" d="M58.8,95.1c3.8,0,7.5,0,11.4,0c0-2.4,0-4.8,0-7.1c0-0.7,0-1.4,0-2.1c0.2-1.9,1.6-3.3,3.4-3.2
		c1.7,0.1,3,1.4,3,3.3c0,5.5,0,11,0,16.6c0,2.8,0,5.7,0,8.5c0,2.4-1.2,3.8-3.2,3.7c-2,0-3.2-1.4-3.2-3.8c0-3.1,0-6.1,0-9.3
		c-3.8,0-7.5,0-11.4,0c0,3.2,0,6.3,0,9.5c0,2-1.1,3.4-2.7,3.6c-2.1,0.3-3.7-1.1-3.7-3.4c0-4.9,0-9.8,0-14.6c0-3.5,0-7,0-10.5
		c0-2.2,1.3-3.7,3.2-3.7c1.9,0,3.2,1.5,3.2,3.7C58.8,89.2,58.8,92.1,58.8,95.1z"/>
	<path class="st0" d="M88.4,98.7c0,4.1,0,8.2,0,12.4c0,2.4-1.2,3.8-3.2,3.7c-2,0-3.2-1.4-3.2-3.8c0-8.2,0-16.4,0-24.6
		c0-2.3,1.3-3.8,3.3-3.8c1.9,0,3.2,1.5,3.2,3.8C88.4,90.6,88.4,94.6,88.4,98.7z"/>
	<path class="st0" d="M99.3,92.9c0-2.2,0-4.5,0-6.7c0-2.1,1.3-3.5,3.1-3.5c1.8,0,3.2,1.4,3.3,3.4c0.1,4.5,0.1,9.1,0,13.6
		c0,2.1-1.4,3.5-3.3,3.5c-1.8,0-3.1-1.4-3.1-3.5C99.3,97.4,99.3,95.2,99.3,92.9z"/>
	<path class="st0" d="M99.3,111.6c0-1.7,1.4-3.2,3.2-3.2c1.7,0,3.2,1.5,3.2,3.2c0,1.8-1.5,3.3-3.3,3.2
		C100.6,114.8,99.3,113.4,99.3,111.6z"/>
</g>
</svg>
