<?xml version="1.0" encoding="utf-8"?>
<!-- Generator: Adobe Illustrator 27.8.0, SVG Export Plug-In . SVG Version: 6.00 Build 0)  -->
<svg version="1.1" id="Layer_1" xmlns="http://www.w3.org/2000/svg" xmlns:xlink="http://www.w3.org/1999/xlink" x="0px" y="0px"
	 width="40px" height="40px" viewBox="0 0 40 40" style="enable-background:new 0 0 40 40;" xml:space="preserve">
<style type="text/css">
	.st0{fill:#FFFFFF;}
</style>
<g>
	<path class="st0" d="M8.3,19.8c0.2-0.4,0.5-0.7,0.7-1.1c1.5-1.8,3.2-3.3,5.3-4.3c1.4-0.7,2.9-1.2,4.5-1.3c3.1-0.3,5.9,0.5,8.4,2.2
		c1.7,1.1,3,2.5,4.3,4.1c0.3,0.4,0.3,0.8,0,1.2c-1.4,1.8-3,3.4-5,4.6c-1.6,1-3.4,1.6-5.3,1.8c-2.8,0.3-5.3-0.4-7.7-1.8
		c-2-1.2-3.6-2.7-5-4.5c-0.1-0.1-0.1-0.3-0.2-0.4C8.3,20.1,8.3,19.9,8.3,19.8z M19.8,15.1c-2.7,0-4.8,2.3-4.8,5.1
		c0,2.7,2.3,4.8,5.1,4.8c2.7,0,4.8-2.3,4.8-5.1C24.9,17.2,22.6,15,19.8,15.1z"/>
	<path class="st0" d="M22.7,20c0,1.5-1.2,2.7-2.7,2.6c-1.4,0-2.6-1.2-2.6-2.7s1.2-2.6,2.7-2.6C21.5,17.4,22.7,18.6,22.7,20z"/>
</g>
<g>
	<path class="st0" d="M0.9,24.2c0-3.4,0-6.9,0-10.3c0-1.3,0.5-2.2,1.6-2.9c5.3-3.2,10.6-6.3,15.9-9.5c1.1-0.6,2.1-0.7,3.2,0
		c5.3,3.2,10.7,6.4,16,9.6c1,0.6,1.5,1.5,1.5,2.7c0,6.9,0,13.8,0,20.7c0,2.6-1.8,4.4-4.4,4.4c-2.2,0-4.5,0-6.7,0c-1.8,0-3-1.2-3-3
		c0-2.5,0-5,0-7.4c0-1.1-0.6-1.6-1.6-1.6c-2.2,0-4.5,0-6.7,0c-1,0-1.6,0.6-1.6,1.6c0,2.5,0,4.9,0,7.4c0,1.9-1.2,3.1-3.1,3.1
		c-2.2,0-4.4,0-6.6,0c-2.6,0-4.4-1.8-4.5-4.4C0.9,31.1,0.9,27.6,0.9,24.2z"/>
</g>
</svg>
