<?xml version="1.0" encoding="utf-8"?>
<!-- Generator: Adobe Illustrator 27.8.0, SVG Export Plug-In . SVG Version: 6.00 Build 0)  -->
<svg version="1.1" id="Layer_1" xmlns="http://www.w3.org/2000/svg" xmlns:xlink="http://www.w3.org/1999/xlink" x="0px" y="0px"
	 width="40px" height="40px" viewBox="0 0 40 40" style="enable-background:new 0 0 40 40;" xml:space="preserve">
<style type="text/css">
	.st0{fill:#337BAE;}
</style>
<g>
	<path class="st0" d="M21,0.6c0.8,0.1,1.5,0.2,2.3,0.4c5.6,1.2,10.1,6,11.1,11.7c0.5,3,0,5.9-1.1,8.7c-1.3,3.2-3.1,6.2-5.1,9
		c-2.3,3.1-4.8,6-7.5,8.7c-0.5,0.5-0.7,0.5-1.2,0c-3.8-3.8-7.3-8-10.1-12.6c-1.6-2.6-2.8-5.3-3.5-8.3c-1.4-6,1.5-12.5,6.9-15.6
		c1.9-1.1,3.9-1.8,6.1-1.9c0.1,0,0.2,0,0.3-0.1C19.7,0.6,20.3,0.6,21,0.6z M26.7,15.1c0-3.7-3-6.7-6.6-6.7c-3.7,0-6.7,3-6.7,6.7
		c0,3.7,3,6.6,6.7,6.6C23.7,21.8,26.7,18.8,26.7,15.1z"/>
</g>
</svg>
