<?xml version="1.0" encoding="utf-8"?>
<!-- Generator: Adobe Illustrator 27.8.0, SVG Export Plug-In . SVG Version: 6.00 Build 0)  -->
<svg version="1.1" id="Layer_1" xmlns="http://www.w3.org/2000/svg" xmlns:xlink="http://www.w3.org/1999/xlink" x="0px" y="0px"
	 width="40px" height="40px" viewBox="0 0 40 40" style="enable-background:new 0 0 40 40;" xml:space="preserve">
<style type="text/css">
	.st0{fill:#337BAE;}
	.st1{fill:#FFFFFF;}
</style>
<circle class="st0" cx="20" cy="20" r="19.7"/>
<g>
	<path class="st1" d="M20.4,7.3c0.1,0,0.2,0.1,0.4,0.1c1.5,0.4,2.5,1.7,2.4,3.3c-0.1,1.5-1.2,2.7-2.7,3c-1.7,0.2-3.4-0.9-3.6-2.6
		c-0.3-1.8,0.9-3.4,2.6-3.7c0,0,0.1,0,0.1,0C19.9,7.3,20.1,7.3,20.4,7.3z"/>
	<path class="st1" d="M23.2,20c0,1.8-1.4,3.2-3.2,3.2c-1.8,0-3.2-1.4-3.2-3.2c0-1.8,1.4-3.2,3.2-3.2C21.8,16.8,23.2,18.2,23.2,20z"
		/>
	<path class="st1" d="M20,26.4c1.8,0,3.2,1.4,3.2,3.2c0,1.8-1.4,3.2-3.2,3.2c-1.8,0-3.2-1.4-3.2-3.2C16.8,27.8,18.2,26.4,20,26.4z"
		/>
</g>
</svg>
