<?xml version="1.0" encoding="utf-8"?>
<!-- Generator: Adobe Illustrator 27.8.0, SVG Export Plug-In . SVG Version: 6.00 Build 0)  -->
<svg version="1.1" id="Layer_1" xmlns="http://www.w3.org/2000/svg" xmlns:xlink="http://www.w3.org/1999/xlink" x="0px" y="0px"
	 width="50px" height="50px" viewBox="0 0 50 50" style="enable-background:new 0 0 50 50;" xml:space="preserve">
<style type="text/css">
	.st0{fill:#ED1C24;}
</style>
<path class="st0" d="M2,43.3c0.2-1.3,1-2.2,2-3.1c3.9-3.8,7.7-7.7,11.5-11.5c0.1-0.1,0.3-0.2,0.4-0.3c-1-1.7-1.7-3.4-2.2-5.2
	c-2.2-9,2.9-18.3,11.6-21.2c1.4-0.5,2.8-0.8,4.2-0.9c0.1,0,0.2,0,0.4-0.1c0.8,0,1.6,0,2.4,0c0.9,0.2,1.9,0.3,2.8,0.5
	C42,2.9,47.6,8.9,48.8,15.8c1.5,8.9-3.6,17.3-12.2,20.1c-5,1.6-9.9,1-14.5-1.6c-0.1-0.1-0.3-0.1-0.5-0.3c-0.1,0.1-0.2,0.3-0.3,0.4
	c-4,4-8.1,8.1-12.1,12.1c-1.6,1.6-3.9,1.8-5.6,0.4c-0.8-0.6-1.2-1.4-1.5-2.3c0-0.1-0.1-0.3-0.1-0.4C2,44.1,2,43.7,2,43.3z M31.1,3.8
	C22.8,3.8,16,10.6,16,18.9c0,8.4,6.8,15.2,15.2,15.2c8.4,0,15.2-6.8,15.2-15.2C46.3,10.6,39.5,3.8,31.1,3.8z M17.5,30.6
	c0,0-0.1,0.1-0.1,0.1c-4,4-8,8-12,12C5.2,42.9,5.1,43,5,43.1c-0.6,0.8-0.1,2,0.9,2.1c0.5,0.1,1-0.1,1.4-0.5c4-4,8-8,12-12
	c0.1-0.1,0.1-0.2,0.2-0.2C18.7,31.9,18.1,31.3,17.5,30.6z"/>
<path class="st0" d="M35.6,18.9c1.5,1.5,2.9,2.7,4.1,4c1.7,1.8,1,4.6-1.4,5.2c-1.2,0.3-2.2-0.1-3-0.9c-1.3-1.3-2.5-2.6-3.9-3.9
	c-0.6,0.6-1.2,1.2-1.8,1.8c-0.7,0.7-1.4,1.5-2.2,2.2c-1.4,1.3-3.2,1.3-4.5,0.1c-1.2-1.2-1.2-3.1,0.1-4.5c1-1.1,2.1-2.1,3.1-3.2
	c0.2-0.2,0.5-0.5,0.8-0.8c-1.3-1.3-2.7-2.6-4-3.9c-1.7-1.8-1-4.6,1.4-5.2c1.2-0.3,2.2,0.1,3,0.9c1.3,1.3,2.5,2.6,3.9,4
	c0.9-0.9,1.8-1.8,2.6-2.6c0.5-0.5,1-1,1.5-1.5c1.3-1.2,3.2-1.2,4.4,0c1.2,1.2,1.3,3.1,0,4.4C38.5,16.2,37.1,17.4,35.6,18.9z"/>
</svg>
