<?xml version="1.0" encoding="utf-8"?>
<!-- Generator: Adobe Illustrator 27.8.0, SVG Export Plug-In . SVG Version: 6.00 Build 0)  -->
<svg version="1.1" id="Layer_1" xmlns="http://www.w3.org/2000/svg" xmlns:xlink="http://www.w3.org/1999/xlink" x="0px" y="0px"
	 width="40px" height="40px" viewBox="0 0 40 40" style="enable-background:new 0 0 40 40;" xml:space="preserve">
<style type="text/css">
	.st0{fill:#FFFFFF;}
</style>
<g>
	<path class="st0" d="M31.9,39.8c-8,0-15.9,0-23.9,0H7.9c-2.1-0.3-4-2.2-4-4.8c0-8.8,0-17.5,0-26.3c0-0.3,0-0.6,0.1-0.9
		c0.4-2.3,2.3-3.8,4.7-3.8c0.5,0,1,0,1.6,0c0-0.7,0-1.4,0-2.2s0.4-1.2,1.2-1.4c1-0.3,2.2,0.4,2.2,1.4c0,0.7,0,1.3,0,2.2
		c1.6,0,3.1,0,4.6,0l0,0c0-0.6,0-1.3,0-2c0-0.7,0.4-1.3,1.2-1.6c1-0.3,2.2,0.4,2.2,1.6c0,0.6,0,1.2,0,2c1.5,0,3,0,4.6,0
		c0-0.5,0-0.9,0-1.4c0-0.3,0-0.5,0-0.8c0.1-0.8,0.9-1.4,1.7-1.3c1,0,1.7,0.6,1.7,1.4c0,0.7,0,1.3,0,2.2c0.5,0,1.2,0,1.7,0
		c2.6,0,4.6,2,4.6,4.6c0,8.9,0,17.9,0,26.9c0,2.2-1.4,3.8-3.5,4.3C32.2,39.7,32.1,39.7,31.9,39.8z M20.8,20c-2.8,0-5.5,0-8.2,0
		c-0.9,0-1.5,0.4-1.7,1.1c-0.3,1,0.4,2.2,1.7,2.2s2.6,0,3.9,0c4.2,0,8.4,0,12.6,0c0.5,0,1-0.1,1.4-0.5c0.4-0.5,0.6-1,0.3-1.8
		c-0.3-0.6-0.9-1-1.6-1C26.4,20,23.6,20,20.8,20z M20.8,29.8c2.8,0,5.5,0,8.2,0c1,0,1.7-0.7,1.8-1.6c0-0.9-0.8-1.7-1.7-1.7
		c-5.6,0-11.1,0-16.7,0c-0.5,0-1,0.2-1.3,0.5c-0.4,0.5-0.6,1.1-0.3,1.8c0.3,0.6,0.9,0.9,1.6,0.9C15.2,29.8,18,29.8,20.8,29.8z
		 M16.7,16.7L16.7,16.7c1.4,0,2.7,0,4.1,0c0.3,0,0.6-0.1,1-0.2c0.6-0.3,1-1,0.9-1.8c-0.2-0.7-0.9-1.2-1.6-1.2c-2.8,0-5.6,0-8.4,0
		c-0.1,0-0.3,0-0.4,0.1c-0.8,0.2-1.3,0.9-1.2,1.8c0.1,0.8,0.8,1.4,1.6,1.4C13.7,16.7,15.2,16.7,16.7,16.7z"/>
</g>
</svg>
