<?xml version="1.0" encoding="utf-8"?>
<!-- Generator: Adobe Illustrator 27.8.0, SVG Export Plug-In . SVG Version: 6.00 Build 0)  -->
<svg version="1.1" id="Layer_1" xmlns="http://www.w3.org/2000/svg" xmlns:xlink="http://www.w3.org/1999/xlink" x="0px" y="0px"
	 width="40px" height="40px" viewBox="0 0 40 40" style="enable-background:new 0 0 40 40;" xml:space="preserve">
<style type="text/css">
	.st0{fill:#337BAE;}
</style>
<g>
	<path class="st0" d="M31.1,38.7c-7.4,0-14.8,0-22.2,0c0,0-0.1,0-0.1,0c-1.9-0.3-3.7-2-3.7-4.5c0-8.3,0-16.5,0-24.8
		c0-0.3,0-0.6,0.1-0.9c0.4-2.1,2.1-3.6,4.3-3.6c0.5,0,1,0,1.5,0c0-0.7,0-1.4,0-2c0-0.7,0.4-1.2,1.1-1.4c1-0.3,2,0.4,2,1.4
		c0,0.7,0,1.3,0,2c1.5,0,2.9,0,4.3,0c0,0,0,0,0,0c0-0.6,0-1.3,0-1.9c0-0.7,0.4-1.3,1.1-1.5c1-0.3,2,0.4,2,1.5c0,0.6,0,1.2,0,1.9
		c1.4,0,2.8,0,4.3,0c0-0.5,0-0.9,0-1.4c0-0.3,0-0.5,0-0.8c0.1-0.8,0.8-1.4,1.6-1.3C28.3,1.4,29,2,29,2.8c0,0.7,0,1.3,0,2
		c0.5,0,1.1,0,1.6,0c2.4,0,4.3,1.9,4.3,4.3c0,8.4,0,16.9,0,25.3c0,2-1.3,3.6-3.2,4.1C31.4,38.6,31.3,38.6,31.1,38.7z M20.8,20
		c-2.6,0-5.1,0-7.7,0c-0.8,0-1.4,0.4-1.6,1.1c-0.3,1,0.4,2,1.6,2c1.2,0,2.4,0,3.6,0c3.9,0,7.8,0,11.7,0c0.5,0,1-0.1,1.3-0.5
		c0.4-0.5,0.6-1,0.3-1.7c-0.3-0.6-0.8-1-1.5-1C26,20,23.4,20,20.8,20z M20.8,29.3c2.6,0,5.1,0,7.7,0c0.9,0,1.6-0.7,1.7-1.5
		c0-0.9-0.7-1.6-1.6-1.6c-5.2,0-10.3,0-15.5,0c-0.5,0-0.9,0.2-1.2,0.5c-0.4,0.5-0.6,1.1-0.3,1.7c0.3,0.6,0.8,0.9,1.5,0.9
		C15.6,29.3,18.2,29.3,20.8,29.3z M16.9,16.9C16.9,16.9,16.9,16.9,16.9,16.9c1.3,0,2.5,0,3.8,0c0.3,0,0.6-0.1,0.9-0.2
		c0.6-0.3,0.9-1,0.8-1.7c-0.2-0.7-0.8-1.2-1.5-1.2c-2.6,0-5.2,0-7.8,0c-0.1,0-0.3,0-0.4,0.1c-0.7,0.2-1.2,0.9-1.1,1.7
		c0.1,0.8,0.7,1.4,1.5,1.4C14.2,16.9,15.6,16.9,16.9,16.9z"/>
</g>
</svg>
