<?xml version="1.0" encoding="utf-8"?>
<!-- Generator: Adobe Illustrator 27.8.0, SVG Export Plug-In . SVG Version: 6.00 Build 0)  -->
<svg version="1.1" id="Layer_1" xmlns="http://www.w3.org/2000/svg" xmlns:xlink="http://www.w3.org/1999/xlink" x="0px" y="0px"
	 width="200px" height="250px" viewBox="0 0 200 250" style="enable-background:new 0 0 200 250;" xml:space="preserve">
<style type="text/css">
	.st0{fill:#FFFFFF;}
</style>
<g>
	<path class="st0" d="M197.6,124.6c0,27.1,0,54.2,0,81.3c0,17.7-10.8,31.7-27.5,35.6c-2.9,0.7-6,0.9-9,1c-40.6,0.1-81.3,0.1-121.9,0
		c-21.2,0-36.7-15-36.8-36.2c-0.2-36.4-0.1-72.7-0.1-109.1c0-10.6,3.9-19.6,11.4-27.1c16.9-16.9,33.8-33.9,50.6-51
		c7.6-7.7,16.6-11.5,27.4-11.4c22.9,0,45.8,0,68.8,0c21.7,0,36.9,15.2,37,37C197.7,71.3,197.6,97.9,197.6,124.6z M76.8,25.7
		c-1.3,1.1-2.1,1.8-2.8,2.5c-17.3,17.3-34.6,34.7-51.9,52c-4.8,4.8-7.1,10.6-7.1,17.4c0.1,36.1,0,72.3,0,108.4
		c0,14.1,9.4,23.4,23.6,23.4c40.7,0,81.4,0,122.2,0c14.3,0,23.8-9.4,23.8-23.6c-0.1-53.6-0.1-107.3-0.3-160.9
		c0-14.9-9.3-24.2-24.2-24.2c-22.3,0-44.6,0-66.9,0c-1.1,0-2.2,0-3.5,0c0,1.7,0,2.9,0,4.2c0,20.2,0,40.4,0,60.6
		c0,4.7-2.3,7.5-6.4,7.6c-16.5,0.1-32.9,0.1-49.4,0c-3.6,0-6.1-2.7-6.2-6.1c-0.2-3.6,2.2-6.3,5.9-6.8c1-0.1,2.1-0.1,3.1-0.1
		c12.2,0,24.4,0,36.6,0c1.1,0,2.2,0,3.6,0C76.8,61.9,76.8,44.2,76.8,25.7z"/>
	<path class="st0" d="M99.4,136.2c-13.3,0-26.7,0-40,0c-2.9,0-5.4-1-6.2-3.7c-0.6-2-0.4-4.7,0.6-6.4c1-1.5,3.5-2.3,5.5-2.8
		c1.6-0.5,3.5-0.1,5.3-0.1c24.4,0,48.7,0,73.1,0c1,0,2.1,0,3.1,0.1c3.7,0.5,6.1,3.2,6,6.7c-0.1,3.6-2.7,6.1-6.5,6.2
		c-3.6,0.1-7.3,0-10.9,0C119.3,136.2,109.3,136.2,99.4,136.2z"/>
	<path class="st0" d="M99.7,176.1c12.8,0,25.6,0,38.4,0c1.1,0,2.3,0,3.4,0.1c3,0.5,5.2,3,5.3,6.1c0.1,3.1-1.8,5.8-4.8,6.4
		c-1.3,0.3-2.7,0.3-4,0.3c-25.5,0-51,0-76.5,0c-6,0-9.1-2.3-9.1-6.6c0-4.2,3.1-6.4,8.9-6.4C74.1,176.1,86.9,176.1,99.7,176.1z"/>
	<path class="st0" d="M99.7,162.6c-13.3,0-26.6,0-40,0c-5.1,0-8.2-3.6-7.1-7.9c0.7-2.8,2.5-4.5,5.4-4.9c1.2-0.2,2.5-0.1,3.7-0.1
		c25.3,0,50.6,0,75.9,0c1,0,2.1,0,3.1,0.1c3.7,0.4,6.2,3,6.1,6.6c-0.1,3.4-2.5,6.1-6.2,6.2c-5.2,0.2-10.4,0.1-15.6,0.1
		C116.6,162.6,108.1,162.6,99.7,162.6z"/>
</g>
</svg>
