<?xml version="1.0" encoding="utf-8"?>
<!-- Generator: Adobe Illustrator 27.8.0, SVG Export Plug-In . SVG Version: 6.00 Build 0)  -->
<svg version="1.1" id="Layer_1" xmlns="http://www.w3.org/2000/svg" xmlns:xlink="http://www.w3.org/1999/xlink" x="0px" y="0px"
	 width="40px" height="40px" viewBox="0 0 40 40" style="enable-background:new 0 0 40 40;" xml:space="preserve">
<style type="text/css">
	.st0{fill:#337BAE;}
</style>
<g>
	<path class="st0" d="M18.8,0.3c0.8,0,1.6,0,2.5,0c0.1,0,0.2,0.1,0.3,0.1c3,0.2,5.8,1.1,8.3,2.6c5.2,3.1,8.4,7.7,9.5,13.7
		c0.1,0.7,0.2,1.4,0.3,2.2c0,0.8,0,1.6,0,2.5c-0.1,0.5-0.1,0.9-0.2,1.4c-0.7,4.6-2.7,8.6-6.1,11.8c-5,4.5-10.9,6.2-17.5,4.9
		c-4.8-1-8.7-3.5-11.7-7.4C1.2,27.7-0.1,23.1,0.4,18c0.4-4.2,2-7.9,4.8-11c3.1-3.4,6.9-5.6,11.4-6.4C17.4,0.5,18.1,0.4,18.8,0.3z
		 M14.5,22.9c0,0.8,0,1.6,0,2.3c0,0.4-0.1,0.8-0.2,1.2c-0.2,0.5-0.5,0.8-1.1,0.8c-0.4,0-0.8,0-1.2,0c0,1.4,0,2.6,0,3.9
		c5.2,0,10.5,0,15.7,0c0-1.3,0-2.6,0-3.9c-3,0-5.9,0-8.9,0c1.1-1.3,0.9-2.8,0.8-4.3c1.5,0,2.9,0,4.3,0c0-1.3,0-2.5,0-3.8
		c-1.5,0-3,0-4.5,0c-0.1-1.2-0.1-2.2-0.1-3.3c0-0.3,0.1-0.6,0.1-1c0.2-0.8,0.8-1.3,1.5-1.3c1,0,1.6,0.4,1.9,1.3
		c0.1,0.3,0.1,0.7,0.2,1c1.6,0,3.2,0,4.8,0c0.1-2.4-1.1-4.5-3.3-5.5c-1.7-0.8-3.5-0.9-5.3-0.6c-2.9,0.5-4.8,2.6-5,5.5
		c-0.1,1.2,0,2.4,0,3.6c0,0.1,0,0.3,0,0.5c-0.8,0-1.5,0-2.2,0c0,1.3,0,2.5,0,3.8C12.9,22.9,13.7,22.9,14.5,22.9z"/>
</g>
</svg>
