<?xml version="1.0" encoding="utf-8"?>
<!-- Generator: Adobe Illustrator 27.8.0, SVG Export Plug-In . SVG Version: 6.00 Build 0)  -->
<svg version="1.1" id="Layer_1" xmlns="http://www.w3.org/2000/svg" xmlns:xlink="http://www.w3.org/1999/xlink" x="0px" y="0px"
	 width="40px" height="40px" viewBox="0 0 40 40" style="enable-background:new 0 0 40 40;" xml:space="preserve">
<style type="text/css">
	.st0{fill:#337BAE;}
</style>
<g>
	<path class="st0" d="M0.6,20.8c0-0.6,0-1.1,0-1.7c0-0.1,0.1-0.3,0.1-0.4c0.1-0.9,0.2-1.8,0.4-2.7c1-4.7,3.4-8.5,7.2-11.4
		c4-3,8.5-4.3,13.5-3.9c2.9,0.2,5.5,1.1,8,2.6c7.1,4.2,10.7,12.2,9.2,20.2c-1,5.2-3.7,9.4-8,12.4c-2.5,1.8-5.3,2.8-8.3,3.3
		c-0.7,0.1-1.3,0.2-2,0.2c-0.5,0-1.1,0-1.6,0c-0.2,0-0.3-0.1-0.5-0.1c-0.9-0.1-1.8-0.2-2.7-0.4c-4.4-0.9-8-3.1-10.9-6.5
		c-2.4-2.8-3.8-6-4.3-9.6C0.8,22.1,0.7,21.5,0.6,20.8z M26.7,19.2c-2-2-3.9-4-5.9-5.9c0,0-0.1,0.1-0.1,0.1c-3.3,3.3-6.6,6.6-9.8,9.9
		c-0.2,0.2-0.3,0.5-0.4,0.8c-0.4,1.8-0.7,3.6-1,5.4c-0.2,0.8,0.3,1.3,1.1,1.1c1.5-0.3,3.1-0.6,4.6-0.9c0.6-0.1,1.3-0.2,1.8-0.7
		c3.1-3.2,6.3-6.3,9.5-9.5C26.5,19.4,26.7,19.3,26.7,19.2z M28.2,17.7c0.6-0.6,1.3-1.3,2-2c0.6-0.6,0.6-1.2,0-1.8
		c-0.6-0.6-1.3-1.3-1.9-1.9c-0.7-0.7-1.5-1.5-2.2-2.2c-0.5-0.5-1.2-0.5-1.7,0c-0.2,0.2-0.4,0.4-0.6,0.6c-0.5,0.5-0.9,0.9-1.4,1.4
		C24.3,13.7,26.2,15.7,28.2,17.7z"/>
</g>
</svg>
