<?xml version="1.0" encoding="utf-8"?>
<!-- Generator: Adobe Illustrator 27.8.0, SVG Export Plug-In . SVG Version: 6.00 Build 0)  -->
<svg version="1.1" id="Layer_1" xmlns="http://www.w3.org/2000/svg" xmlns:xlink="http://www.w3.org/1999/xlink" x="0px" y="0px"
	 width="300px" height="61.2px" viewBox="0 0 300 61.2" style="enable-background:new 0 0 300 61.2;" xml:space="preserve">
<style type="text/css">
	.st0{fill:#FFFFFF;}
</style>
<g>
	<g>
		<g>
			<path class="st0" d="M36.3,58.2c-5-5-8-11.2-9.2-18.2c-1.3-8.5,0.3-16.3,6.1-22.9c2.7-3.1,6.2-4.2,10.2-3.3
				c3.9,0.9,6.5,3.5,7.6,7.3c1.2,4.3-0.1,8-3.5,10.8c-3.9,3.1-7.1,6.6-9,11.3c-1.7,4-2.3,8.2-1.8,12.6c0.1,0.5,0.1,1.1,0.1,1.7
				C36.7,57.8,36.5,58,36.3,58.2z"/>
			<path class="st0" d="M36.8,59c-0.3,0.1-0.6,0.3-0.9,0.3c-12.8-0.1-23-5.2-29.5-16.5C4.2,39,3,34.8,3.8,30.3c1-5.4,6.3-8.9,11.7-8
				c5.5,0.9,9.3,5.8,8.8,11.3C23.3,43.9,27,52.2,35.6,58.3c0.2,0.1,0.5,0.1,0.7,0.2l0,0c0.1,0.1,0.2,0.2,0.3,0.3l0,0
				C36.6,58.8,36.7,58.9,36.8,59L36.8,59z"/>
			<path class="st0" d="M36.3,58.2c0.2-0.2,0.3-0.4,0.5-0.5c0.1-0.4,0.3-0.9,0.3-1.3c0.3-7.8,3.4-14.3,10.1-18.7
				c2.3-1.5,4.7-2.4,7.4-2.5c4.1-0.2,7.4,2.9,7.5,7c0.1,4-3.1,7.3-7.2,7.2c-2.9,0-5.8,0.2-8.5,1.4c-3.7,1.5-5.6,3.2-9,8.1
				c-0.1-0.3-0.1-0.5-0.2-0.7c-0.1,0.3-0.3,0.5-0.4,0.9l0,0c-0.1-0.1-0.2-0.2-0.3-0.3l0,0c-0.1-0.1-0.2-0.2-0.3-0.3l0,0
				C36.3,58.4,36.3,58.3,36.3,58.2z"/>
			<path class="st0" d="M2.8,14.6c0.1-3.1,1.7-5,4-5.4c2.1-0.3,4.3,0.9,5,2.9c0.5,1.3,0.9,2.8,1.2,4.2c0.5,2.1-0.9,4.4-3,5.1
				c-2.1,0.8-4.6,0.1-5.6-1.9C3.6,17.7,3.2,15.7,2.8,14.6z"/>
			<path class="st0" d="M55.1,7.1c-0.7,2.3-1.8,4.8-4.2,6.4c-1.7,1.1-4,0.7-5.4-0.8c-1.5-1.4-1.9-3.5-0.9-5.4
				c0.7-1.3,1.4-2.5,2.2-3.6c1.2-1.7,3.4-2.3,5.3-1.7C53.8,2.7,55.1,4.5,55.1,7.1z"/>
			<path class="st0" d="M66,41.1c-2.1,0-3.4-1-3.7-2.5C62,37.2,62.7,35.7,64,35c0.9-0.4,1.9-0.8,2.9-1c1.7-0.4,3.4,0.6,3.9,2.2
				c0.5,1.5-0.3,3.3-1.8,3.9C67.8,40.5,66.7,40.8,66,41.1z"/>
		</g>
	</g>
	<path class="st0" d="M82.9,57V12.7h17.9h2.2c6,0,10,1.1,12.1,3.1s3.1,6.1,3.1,12.1c0,5.9-1,9.8-3,11.8c-2,1.9-6,2.9-12.1,2.9h-1.9
		h-9.9v14.3L82.9,57L82.9,57z M91.3,35.6h9.6c3.8,0,6.2-0.5,7.2-1.3c1-0.9,1.5-2.9,1.5-6.2c0-3.7-0.4-6-1.3-7
		c-0.9-0.9-3.1-1.3-6.6-1.3H91.3V35.6z"/>
	<path class="st0" d="M130.7,12.7V57h-7.4V12.7H130.7z"/>
	<path class="st0" d="M145.8,35h-7.6c0-3.7,0.9-6.2,2.6-7.4c1.7-1.3,5.2-1.9,10.3-1.9c5.6,0,9.4,0.8,11.3,2.3c2,1.5,2.9,4.4,2.9,8.8
		V57h-7.4l0.3-4.2H158c-1.4,3.1-4.7,4.6-9.9,4.6c-7.5,0-11.2-3.2-11.2-9.6c0-6.4,3.9-9.7,11.5-9.7c5.1,0,8.2,1.2,9.4,3.5h0.1v-5
		c0-2.4-0.4-4-1.3-4.8c-0.9-0.8-2.6-1.2-5.2-1.2C147.6,30.7,145.8,32.1,145.8,35z M150.7,43.1c-4.2,0-6.3,1.5-6.3,4.3
		c0,2,0.5,3.3,1.3,4c0.9,0.6,2.7,0.9,5.4,0.9c4.5,0,6.8-1.5,6.8-4.6C157.9,44.7,155.5,43.1,150.7,43.1z"/>
	<path class="st0" d="M172.7,26h7.4l-0.3,5.2h0.1c1.5-3.7,4.7-5.6,9.7-5.6c7.3,0,11,3.4,11,10.2V57h-7.4V38.3v-1.2l-0.1-2.2
		c-0.3-2.3-2.2-3.5-5.4-3.5c-5,0-7.5,2.4-7.5,7.1v18.4h-7.4V26z"/>
	<path class="st0" d="M259.9,12.7V57h-8.4V32.8c0-1.9,0.1-4.1,0.1-6.6l0.1-3.3l0.1-3.3h-0.3l-1,3.1l-1,3.1c-0.9,2.8-1.6,4.8-2.1,6.1
		l-9.7,25h-7.6l-9.8-24.8c-0.5-1.4-1.3-3.4-2.1-6.1l-1-3.1l-1-3.1H216l0.1,3.2l0.1,3.3c0.1,2.5,0.2,4.6,0.2,6.4v24.1h-8.4V12.7h13.7
		l7.9,20.5c0.5,1.4,1.3,3.5,2.1,6.1l1,3.1l1,3.1h0.3l0.9-3.1l1-3.1c0.8-2.6,1.5-4.6,2.1-6.1l7.8-20.6L259.9,12.7L259.9,12.7
		L259.9,12.7z"/>
	<path class="st0" d="M275.1,19.8v11.4h20.7v6.2h-20.7v12.5h22.1v7h-30.5V12.7H297v7L275.1,19.8L275.1,19.8z"/>
</g>
</svg>
