<?xml version="1.0" encoding="utf-8"?>
<!-- Generator: Adobe Illustrator 27.8.0, SVG Export Plug-In . SVG Version: 6.00 Build 0)  -->
<svg version="1.1" id="Layer_1" xmlns="http://www.w3.org/2000/svg" xmlns:xlink="http://www.w3.org/1999/xlink" x="0px" y="0px"
	 width="479px" height="117.5px" viewBox="0 0 479 117.5" style="enable-background:new 0 0 479 117.5;" xml:space="preserve">
<style type="text/css">
	.st0{fill:#FFBEBD;}
	.st1{fill:#FCFCFA;}
	.st2{fill:#337BAE;}
	.st3{fill:#1A405F;}
	.st4{fill:#2F2E33;}
</style>
<rect x="138.5" y="-149.3" class="st0" width="72" height="42"/>
<rect x="252.5" y="-144.3" class="st1" width="72" height="42"/>
<rect x="362.5" y="-144.3" class="st2" width="72" height="42"/>
<rect x="318.5" y="-199.3" class="st3" width="72" height="42"/>
<rect x="216.5" y="-199.3" class="st4" width="72" height="42"/>
<g>
	<g>
		<path class="st2" d="M67,97.9c-7.5-7.6-12.1-16.8-13.8-27.4c-2-12.8,0.5-24.5,9.2-34.5c4.1-4.6,9.4-6.4,15.4-4.9
			c5.9,1.4,9.8,5.2,11.4,11c1.8,6.5-0.1,12.1-5.3,16.3c-5.8,4.7-10.7,10-13.6,17c-2.6,6.1-3.5,12.4-2.7,19c0.1,0.8,0.1,1.7,0.1,2.6
			C67.6,97.3,67.3,97.6,67,97.9z"/>
		<path class="st2" d="M67.8,99.1c-0.5,0.2-0.9,0.5-1.4,0.5C47.1,99.4,31.8,91.8,22,74.7c-3.3-5.8-5.2-12.1-3.9-18.9
			c1.5-8.1,9.5-13.4,17.6-12.1c8.3,1.3,14,8.8,13.2,17C47.5,76.4,53,88.9,65.9,98c0.3,0.2,0.8,0.2,1.1,0.3l0,0
			c0.1,0.1,0.3,0.3,0.4,0.4l0,0C67.5,98.8,67.7,99,67.8,99.1L67.8,99.1z"/>
		<path class="st2" d="M67,97.9c0.3-0.3,0.5-0.6,0.8-0.8c0.2-0.6,0.5-1.3,0.5-1.9c0.5-11.8,5.1-21.5,15.2-28.2
			c3.4-2.2,7.1-3.6,11.2-3.7c6.2-0.3,11.2,4.4,11.3,10.5c0.1,6.1-4.7,11-10.9,10.9c-4.4,0-8.7,0.3-12.8,2.1
			c-5.6,2.3-8.4,4.8-13.5,12.2c-0.1-0.4-0.2-0.8-0.3-1.1c-0.2,0.4-0.4,0.8-0.6,1.3l0,0c-0.1-0.1-0.3-0.3-0.4-0.4l0,0
			c-0.1-0.1-0.3-0.3-0.4-0.4l0,0C67,98.2,67,98,67,97.9z"/>
		<path class="st2" d="M16.5,32.2c0.1-4.7,2.6-7.5,6-8.1c3.1-0.5,6.5,1.3,7.6,4.4c0.7,2,1.3,4.2,1.8,6.3c0.7,3.2-1.4,6.6-4.5,7.7
			c-3.1,1.2-7,0.1-8.4-2.9C17.7,36.9,17.1,33.9,16.5,32.2z"/>
		<path class="st2" d="M95.3,20.9c-1,3.4-2.7,7.2-6.4,9.7c-2.6,1.7-6.1,1-8.2-1.2c-2.2-2.1-2.8-5.3-1.4-8.1c1-1.9,2.1-3.7,3.3-5.4
			c1.8-2.5,5.1-3.5,8-2.5C93.4,14.3,95.3,17,95.3,20.9z"/>
		<path class="st2" d="M111.8,72.1c-3.1,0-5.1-1.5-5.6-3.8c-0.5-2.1,0.6-4.3,2.6-5.3c1.4-0.6,2.8-1.2,4.3-1.5
			c2.5-0.6,5.1,0.9,5.8,3.3c0.8,2.3-0.4,4.9-2.7,5.9C114.5,71.3,112.8,71.7,111.8,72.1z"/>
	</g>
</g>
<path class="st2" d="M137.2,96.1V29.4h26.9h3.3c9,0,15.1,1.6,18.2,4.7c3.1,3.1,4.7,9.2,4.7,18.2c0,8.9-1.5,14.8-4.5,17.8
	c-3,2.9-9,4.4-18.2,4.4h-2.9h-14.9V96L137.2,96.1L137.2,96.1z M149.9,63.9h14.4c5.7,0,9.4-0.7,10.9-2s2.3-4.4,2.3-9.4
	c0-5.6-0.6-9.1-1.9-10.5c-1.3-1.4-4.6-2-10-2h-15.7V63.9z"/>
<path class="st2" d="M209.3,29.4v66.7h-11.2V29.4H209.3z"/>
<path class="st2" d="M231.9,62.9h-11.4c0-5.6,1.3-9.3,3.9-11.2c2.6-1.9,7.8-2.8,15.5-2.8c8.4,0,14.1,1.2,17,3.5
	c3,2.3,4.4,6.7,4.4,13.2v30.5h-11.2l0.5-6.4h-0.3c-2.1,4.7-7.1,7-14.9,7c-11.3,0-16.9-4.8-16.9-14.4c0-9.7,5.8-14.6,17.3-14.6
	c7.7,0,12.4,1.8,14.1,5.3h0.2v-7.6c0-3.6-0.6-6.1-1.9-7.3s-3.9-1.8-7.8-1.8C234.7,56.4,231.9,58.6,231.9,62.9z M239.3,75.2
	c-6.3,0-9.5,2.2-9.5,6.5c0,3,0.7,5,2,6c1.3,0.9,4,1.4,8.2,1.4c6.8,0,10.2-2.3,10.2-6.9C250.2,77.5,246.6,75.2,239.3,75.2z"/>
<path class="st2" d="M272.5,49.4h11.1l-0.4,7.9h0.2c2.2-5.6,7.1-8.4,14.6-8.4c11,0,16.6,5.1,16.6,15.4v31.8h-11.2V67.9v-1.8
	l-0.2-3.3c-0.5-3.5-3.3-5.2-8.2-5.2c-7.5,0-11.3,3.6-11.3,10.7V96h-11.2V49.4z"/>
<path class="st2" d="M403.8,29.4v66.7h-12.6V59.7c0-2.9,0.1-6.2,0.2-9.9l0.2-5l0.2-4.9h-0.4l-1.5,4.6l-1.5,4.6
	c-1.4,4.2-2.4,7.2-3.2,9.2l-14.6,37.6h-11.5l-14.8-37.3c-0.8-2.1-1.9-5.1-3.2-9.2l-1.5-4.6l-1.5-4.6h-0.4l0.2,4.8l0.2,4.9
	c0.2,3.8,0.3,7,0.3,9.7v36.3h-12.6V29.4h20.6l11.9,30.9c0.8,2.1,1.9,5.2,3.2,9.2l1.5,4.6l1.5,4.6h0.4l1.4-4.6l1.5-4.6
	c1.2-3.9,2.2-6.9,3.1-9.2l11.7-31h21.2L403.8,29.4L403.8,29.4z"/>
<path class="st2" d="M426.8,40.1v17.2H458v9.3h-31.2v18.8h33.3V96h-45.9V29.4h45.6V40L426.8,40.1L426.8,40.1z"/>
</svg>
