<?xml version="1.0" encoding="utf-8"?>
<!-- Generator: Adobe Illustrator 27.8.0, SVG Export Plug-In . SVG Version: 6.00 Build 0)  -->
<svg version="1.1" id="Layer_1" xmlns="http://www.w3.org/2000/svg" xmlns:xlink="http://www.w3.org/1999/xlink" x="0px" y="0px"
	 width="40px" height="40px" viewBox="0 0 40 40" style="enable-background:new 0 0 40 40;" xml:space="preserve">
<style type="text/css">
	.st0{fill:#FFFFFF;}
</style>
<g>
	<path class="st0" d="M16,0.4c2.6,0,5.3,0,7.9,0c0.6,0.3,0.8,0.7,0.8,1.3c0,4.3,0,8.7,0,13c0,0.1,0,0.3,0,0.5c0.2,0,0.4,0,0.5,0
		c4.3,0,8.7,0,13,0c0.8,0,1.2,0.4,1.2,1.2c0,2.3,0,4.6,0,6.9c0,0.8-0.4,1.3-1.3,1.3c-4.3,0-8.7,0-13,0c-0.1,0-0.3,0-0.5,0
		c0,0.2,0,0.3,0,0.5c0,4.3,0,8.7,0,13c0,0.6-0.2,1.1-0.8,1.3c-2.6,0-5.3,0-7.9,0c-0.6-0.3-0.8-0.7-0.8-1.3c0-4.3,0-8.7,0-13
		c0-0.1,0-0.3,0-0.5c-0.2,0-0.3,0-0.5,0c-4.3,0-8.6,0-13,0c-0.6,0-1.1-0.2-1.3-0.8c0-2.6,0-5.3,0-7.9c0.3-0.6,0.7-0.8,1.3-0.8
		c4.3,0,8.6,0,13,0c0.1,0,0.3,0,0.5,0c0-0.2,0-0.3,0-0.5c0-4.3,0-8.7,0-13C15.2,1.1,15.5,0.7,16,0.4z"/>
</g>
</svg>
