<?xml version="1.0" encoding="utf-8"?>
<!-- Generator: Adobe Illustrator 27.8.0, SVG Export Plug-In . SVG Version: 6.00 Build 0)  -->
<svg version="1.1" id="Layer_1" xmlns="http://www.w3.org/2000/svg" xmlns:xlink="http://www.w3.org/1999/xlink" x="0px" y="0px"
	 width="40px" height="40px" viewBox="0 0 40 40" style="enable-background:new 0 0 40 40;" xml:space="preserve">
<style type="text/css">
	.st0{fill:#337BAE;}
</style>
<g>
	<path class="st0" d="M39.4,18.8c0,0.8,0,1.6,0,2.4c0,0.1-0.1,0.2-0.1,0.3c-0.3,3.3-1.3,6.4-3.1,9.1c-3.1,4.6-7.4,7.4-12.8,8.4
		c-0.7,0.1-1.4,0.2-2.2,0.3c-0.8,0-1.6,0-2.4,0c-0.1,0-0.2-0.1-0.3-0.1c-3.9-0.3-7.3-1.6-10.4-4c-3.9-3.1-6.3-7.1-7.2-12
		c-0.1-0.7-0.2-1.4-0.3-2.1c0-0.8,0-1.6,0-2.4c0-0.3,0.1-0.7,0.1-1C1.4,12.3,4,7.8,8.4,4.5C14.7-0.2,23-0.6,29.7,3.3
		c5.2,3,8.3,7.5,9.4,13.4C39.2,17.4,39.3,18.1,39.4,18.8z M12.3,30.9c5.2,0,10.3,0,15.4,0c0-1.3,0-2.6,0-3.9c-2.9,0-5.8,0-8.8,0
		c1.1-1.3,0.8-2.7,0.8-4.2c1.5,0,2.9,0,4.3,0c0-1.3,0-2.5,0-3.8c-1.5,0-2.9,0-4.4,0c0-1.1-0.1-2.2-0.1-3.3c0-0.3,0.1-0.6,0.1-0.9
		c0.2-0.8,0.7-1.3,1.5-1.3c0.9,0,1.6,0.4,1.8,1.3c0.1,0.3,0.1,0.7,0.2,1c1.6,0,3.1,0,4.7,0c0.1-2.3-1.1-4.4-3.2-5.4
		c-1.7-0.8-3.5-0.9-5.3-0.6c-2.8,0.4-4.8,2.5-5,5.4c-0.1,1.1,0,2.3,0,3.4c0,0.2,0,0.3,0,0.6c-0.8,0-1.5,0-2.2,0c0,1.3,0,2.5,0,3.8
		c0.8,0,1.5,0,2.4,0c0,0.8,0,1.5,0,2.2c0,0.4,0,0.8-0.1,1.2c-0.1,0.5-0.5,0.7-1,0.7c-0.4,0-0.8,0-1.2,0
		C12.3,28.4,12.3,29.6,12.3,30.9z"/>
</g>
</svg>
