<?xml version="1.0" encoding="utf-8"?>
<!-- Generator: Adobe Illustrator 27.8.0, SVG Export Plug-In . SVG Version: 6.00 Build 0)  -->
<svg version="1.1" id="Layer_1" xmlns="http://www.w3.org/2000/svg" xmlns:xlink="http://www.w3.org/1999/xlink" x="0px" y="0px"
	 width="40px" height="40px" viewBox="0 0 40 40" style="enable-background:new 0 0 40 40;" xml:space="preserve">
<style type="text/css">
	.st0{fill:#FFFFFF;}
</style>
<g>
	<path class="st0" d="M39.4,26.1c-0.1,0.3-0.1,0.6-0.2,0.9c-0.8,3.6-3.9,6-7.7,6c-6.6,0-13.1,0-19.7,0c-0.2,0-0.3,0-0.5,0
		c0.1,0.1,0.1,0.2,0.2,0.3c0.6,0.6,1.2,1.2,1.8,1.8c0.7,0.7,0.7,1.6,0.1,2.2c-0.6,0.6-1.5,0.6-2.2-0.1c-1.5-1.5-3.1-3.1-4.6-4.6
		C6,32,6,31.1,6.7,30.4c1.6-1.6,3.2-3.2,4.8-4.8c0.5-0.5,1.1-0.6,1.7-0.3c0.6,0.3,0.9,0.8,0.9,1.5c0,0.4-0.2,0.8-0.5,1.1
		c-0.7,0.7-1.4,1.4-2.2,2.2c0.2,0,0.3,0,0.3,0c6.7,0,13.3,0,20,0c2.7,0,4.7-2.1,4.7-4.7c0-3.5,0-7,0-10.5c0-0.2,0-0.4,0.1-0.6
		c0.2-0.6,0.7-1,1.3-1.1c0.6,0,1.2,0.3,1.5,0.9c0.1,0.1,0.1,0.2,0.2,0.3C39.4,18.3,39.4,22.2,39.4,26.1z"/>
	<path class="st0" d="M28.7,6.9c-0.1-0.2-0.2-0.2-0.3-0.3c-0.6-0.6-1.3-1.2-1.9-1.9c-0.6-0.6-0.6-1.5,0-2.1C27.1,2,28,2,28.6,2.5
		c0,0,0.1,0.1,0.1,0.1c1.5,1.5,3.1,3.1,4.6,4.6c0.7,0.7,0.7,1.6,0,2.3c-1.6,1.6-3.2,3.2-4.7,4.7C27.9,15,27,15,26.4,14.4
		c-0.6-0.6-0.6-1.6,0.1-2.3c0.6-0.6,1.3-1.3,1.9-1.9c0.1-0.1,0.2-0.2,0.3-0.3c-0.2,0-0.3,0-0.4,0c-6.6,0-13.2,0-19.8,0
		c-2.8,0-4.8,2.1-4.8,4.8c0,3.5,0,7,0,10.5c0,1.1-1,1.8-2,1.5C1,26.6,0.6,26,0.6,25.3c0-2.7,0-5.4,0-8.1c0-1.2,0-2.4,0.1-3.6
		C1,10.2,4.1,7.3,7.4,7c0.5,0,0.9-0.1,1.4-0.1c6.4,0,12.9,0,19.3,0C28.3,6.9,28.4,6.9,28.7,6.9z"/>
</g>
</svg>
