<?xml version="1.0" encoding="utf-8"?>
<!-- Generator: Adobe Illustrator 27.8.0, SVG Export Plug-In . SVG Version: 6.00 Build 0)  -->
<svg version="1.1" id="Layer_1" xmlns="http://www.w3.org/2000/svg" xmlns:xlink="http://www.w3.org/1999/xlink" x="0px" y="0px"
	 width="40px" height="40px" viewBox="0 0 40 40" style="enable-background:new 0 0 40 40;" xml:space="preserve">
<style type="text/css">
	.st0{fill:#FFFFFF;}
</style>
<g>
	<path class="st0" d="M21.2,0.3c0.7,0.1,1.4,0.2,2.1,0.3C25.6,1,27.8,1.8,29.8,3c0.3,0.2,0.4,0.1,0.6-0.1c0.7-0.7,1.4-1.4,2.1-2.1
		c0.1-0.1,0.2-0.2,0.3-0.3c1.2,4.7,2.4,9.3,3.6,14c-4.7-1.2-9.3-2.4-14-3.6c0.9-0.9,1.7-1.7,2.6-2.6c-3.4-1.6-8.6-1.6-12.7,1.5
		C8.5,12.8,7,16.8,7.3,21.6c-2.4-0.5-4.6-1-6.9-1.5c0-0.3,0-0.6,0-0.8c0-0.1,0.1-0.2,0.1-0.4c0.1-2.4,0.7-4.8,1.7-6.9
		C5,5.8,9.9,2,16.6,0.7c0.7-0.1,1.5-0.2,2.2-0.3C19.6,0.3,20.4,0.3,21.2,0.3z"/>
	<path class="st0" d="M19.2,39.7c-0.6-0.1-1.2-0.1-1.9-0.2c-2.6-0.3-5-1.2-7.2-2.5c-0.1,0-0.2-0.1-0.3-0.1c-0.9,0.9-1.8,1.8-2.8,2.8
		c-1.2-4.7-2.4-9.3-3.6-14.1c4.7,1.2,9.3,2.4,14,3.6c-0.9,0.9-1.7,1.7-2.6,2.6c4.6,1.7,8.8,1.3,12.6-1.5c3.8-2.9,5.4-6.8,5.2-11.6
		c0.8,0.2,1.5,0.3,2.2,0.4c1.5,0.3,3.1,0.6,4.6,0.9c0.1,0,0.1,0,0.2,0.1c0,0.1,0,0.3,0,0.4c0,0.2,0,0.4-0.1,0.6
		c-0.1,0.8-0.1,1.7-0.3,2.5c-0.8,4.5-2.9,8.3-6.4,11.3c-2.8,2.5-6,4-9.7,4.6c-0.8,0.1-1.6,0.2-2.5,0.3
		C20.2,39.7,19.7,39.7,19.2,39.7z"/>
</g>
</svg>
