<?xml version="1.0" encoding="UTF-8"?>
<svg id="Layer_1" data-name="Layer 1" xmlns="http://www.w3.org/2000/svg" viewBox="0 0 39.2 39.5">
  <path d="m20.8,0c.7.1,1.4.2,2.1.3,2.3.4,4.5,1.2,6.5,2.4.3.2.4.1.6-.1.7-.7,1.4-1.4,2.1-2.1.1-.1.2-.2.3-.3,1.2,4.7,2.4,9.3,3.6,14-4.7-1.2-9.3-2.4-14-3.6.9-.9,1.7-1.7,2.6-2.6-3.4-1.6-8.6-1.6-12.7,1.5-3.8,3-5.3,7-5,11.8-2.4-.5-4.6-1-6.9-1.5v-.8c0-.1.1-.2.1-.4.1-2.4.7-4.8,1.7-6.9C4.6,5.5,9.5,1.7,16.2.4c.7-.1,1.5-.2,2.2-.3.8-.1,1.6-.1,2.4-.1Z" fill="#337bae" stroke-width="0"/>
  <path d="m18.8,39.4c-.6-.1-1.2-.1-1.9-.2-2.6-.3-5-1.2-7.2-2.5-.1,0-.2-.1-.3-.1-.9.9-1.8,1.8-2.8,2.8-1.2-4.7-2.4-9.3-3.6-14.1,4.7,1.2,9.3,2.4,14,3.6-.9.9-1.7,1.7-2.6,2.6,4.6,1.7,8.8,1.3,12.6-1.5,3.8-2.9,5.4-6.8,5.2-11.6.8.2,1.5.3,2.2.4,1.5.3,3.1.6,4.6.9q.1,0,.2.1v.4c0,.2,0,.4-.1.6-.1.8-.1,1.7-.3,2.5-.8,4.5-2.9,8.3-6.4,11.3-2.8,2.5-6,4-9.7,4.6-.8.1-1.6.2-2.5.3-.4-.1-.9-.1-1.4-.1Z" fill="#337bae" stroke-width="0"/>
</svg>