<?xml version="1.0" encoding="utf-8"?>
<!-- Generator: Adobe Illustrator 27.8.0, SVG Export Plug-In . SVG Version: 6.00 Build 0)  -->
<svg version="1.1" id="Layer_1" xmlns="http://www.w3.org/2000/svg" xmlns:xlink="http://www.w3.org/1999/xlink" x="0px" y="0px"
	 width="40px" height="40px" viewBox="0 0 40 40" style="enable-background:new 0 0 40 40;" xml:space="preserve">
<style type="text/css">
	.st0{fill:#337BAE;}
</style>
<g>
	<path class="st0" d="M21.1,39.8c-0.7,0-1.4,0-2.2,0c-0.1,0-0.3-0.1-0.4-0.1c-0.9-0.1-1.7-0.2-2.6-0.4c-4.1-0.9-7.6-2.8-10.5-5.9
		C1.5,29-0.2,23.9,0.3,18c0.4-4.2,2-7.9,4.8-11c4.8-5.4,10.9-7.5,18-6.5C26.9,1,30.2,2.6,33,5.1c3.6,3.2,5.8,7.2,6.6,12.1
		c0.1,0.6,0.2,1.2,0.2,1.8c0,0.7,0,1.4,0,2.2c0,0.1-0.1,0.2-0.1,0.4c-0.1,0.5-0.1,1.1-0.2,1.6c-0.6,3.7-2.1,7.1-4.6,9.9
		c-3.2,3.7-7.3,5.9-12.1,6.6C22.2,39.7,21.7,39.7,21.1,39.8z M16.8,7.6c-1.3,1.3-2.5,2.6-3.8,3.9c2.9,2.9,5.8,5.7,8.7,8.5
		c-2.9,2.9-5.8,5.7-8.7,8.5c1.3,1.3,2.5,2.6,3.8,3.9c4.2-4.1,8.4-8.3,12.7-12.4C25.2,15.8,21,11.7,16.8,7.6z"/>
</g>
</svg>
