<?xml version="1.0" encoding="utf-8"?>
<!-- Generator: Adobe Illustrator 27.8.0, SVG Export Plug-In . SVG Version: 6.00 Build 0)  -->
<svg version="1.1" id="Layer_1" xmlns="http://www.w3.org/2000/svg" xmlns:xlink="http://www.w3.org/1999/xlink" x="0px" y="0px"
	 width="40px" height="40px" viewBox="0 0 40 40" style="enable-background:new 0 0 40 40;" xml:space="preserve">
<style type="text/css">
	.st0{fill:#337BAE;}
</style>
<g>
	<path class="st0" d="M20,39.6c-10.9,0-19.6-8.8-19.6-19.6C0.4,9.2,9.2,0.4,20,0.5c10.9,0,19.6,8.8,19.6,19.6
		C39.6,31,30.8,39.6,20,39.6z M20,35.3c8.4,0,15.3-6.8,15.3-15.2S28.5,4.8,20.1,4.8C11.6,4.8,4.8,11.6,4.8,20.1
		C4.7,28.5,11.5,35.2,20,35.3z"/>
	<path class="st0" d="M9.1,20.1c0-6,4.9-10.9,10.9-10.9s10.9,4.9,10.9,10.9S26,31,20,31S9.1,26.1,9.1,20.1z"/>
</g>
</svg>
