<?xml version="1.0" encoding="utf-8"?>
<!-- Generator: Adobe Illustrator 27.8.0, SVG Export Plug-In . SVG Version: 6.00 Build 0)  -->
<svg version="1.1" id="Layer_1" xmlns="http://www.w3.org/2000/svg" xmlns:xlink="http://www.w3.org/1999/xlink" x="0px" y="0px"
	 width="40px" height="40px" viewBox="0 0 40 40" style="enable-background:new 0 0 40 40;" xml:space="preserve">
<style type="text/css">
	.st0{fill:#337BAE;}
</style>
<g>
	<path class="st0" d="M20,39.6C9.1,39.6,0.4,30.8,0.4,20C0.4,9.1,9.2,0.3,20,0.4C30.9,0.4,39.6,9.2,39.6,20
		C39.6,30.9,30.8,39.6,20,39.6z M20,35.3c8.4,0,15.3-6.8,15.3-15.2c0-8.4-6.8-15.3-15.2-15.3C11.6,4.7,4.8,11.5,4.8,20
		C4.7,28.4,11.5,35.2,20,35.3z"/>
	<path class="st0" d="M9.1,20C9.1,14,14,9.1,20,9.1c6,0,10.9,4.9,10.9,10.9c0,6-4.9,10.9-10.9,10.9C14,30.9,9.1,26,9.1,20z"/>
</g>
</svg>
