<?xml version="1.0" encoding="utf-8"?>
<!-- Generator: Adobe Illustrator 27.8.0, SVG Export Plug-In . SVG Version: 6.00 Build 0)  -->
<svg version="1.1" id="Layer_1" xmlns="http://www.w3.org/2000/svg" xmlns:xlink="http://www.w3.org/1999/xlink" x="0px" y="0px"
	 width="40px" height="40px" viewBox="0 0 40 40" style="enable-background:new 0 0 40 40;" xml:space="preserve">
<style type="text/css">
	.st0{fill:#FFFFFF;}
</style>
<g>
	<path class="st0" d="M17.9,0.5c0.8,0.1,1.7,0.2,2.5,0.4C26.8,2.2,31.9,7.3,33,13.5c0.8,4.7-0.3,8.9-3.4,12.6
		c-0.1,0.1-0.1,0.2-0.2,0.3c1.1,1.1,2.3,2.3,3.4,3.4c2.1,2.1,4.1,4.1,6.2,6.2c0.9,0.9,0.9,2.2,0,3c-0.9,0.8-2.2,0.8-3.1-0.1
		c-3.1-3.1-6.2-6.2-9.4-9.3c-0.1-0.1-0.2-0.2-0.3-0.3c-0.3,0.2-0.6,0.4-0.9,0.5c-9.5,5.6-22.1,0.5-24.6-9.9C-1,12.3,3,4.8,10.3,1.7
		c1.6-0.7,3.3-1.1,5.1-1.2c0.1,0,0.2,0,0.3-0.1C16.4,0.5,17.1,0.5,17.9,0.5z M16.8,27.9c6.7,0,12.2-5.3,12.1-11.7
		c0-6.5-5.5-11.6-12.2-11.6C10,4.6,4.6,9.8,4.6,16.3C4.7,22.7,10.1,27.9,16.8,27.9z"/>
</g>
</svg>
