<?xml version="1.0" encoding="utf-8"?>
<!-- Generator: Adobe Illustrator 27.8.0, SVG Export Plug-In . SVG Version: 6.00 Build 0)  -->
<svg version="1.1" id="Layer_1" xmlns="http://www.w3.org/2000/svg" xmlns:xlink="http://www.w3.org/1999/xlink" x="0px" y="0px"
	 width="40px" height="40px" viewBox="0 0 40 40" style="enable-background:new 0 0 40 40;" xml:space="preserve">
<style type="text/css">
	.st0{fill:#337BAE;}
</style>
<g>
	<g>
		<path class="st0" d="M20,39.6C10.2,40-0.4,31.2,0.4,18.6C1.1,9.1,9.1,0.4,20,0.4c10.8,0,19.6,8.8,19.6,19.6
			C39.6,31.6,29.8,39.9,20,39.6z M25.5,23.6c2.6-3.6,1.8-8.3-1.4-10.9c-3-2.5-7.5-2.3-10.4,0.3c-2.9,2.7-3.5,7.1-1.2,10.4
			c1.1,1.6,2.7,2.7,4.6,3.2c2.4,0.6,4.6,0.1,6.8-1.3c0.1,0.1,0.2,0.3,0.3,0.4c0.9,0.9,1.9,1.9,2.8,2.8c0.4,0.4,0.9,0.5,1.4,0.3
			c0.5-0.2,0.7-0.6,0.7-1.1c0-0.4-0.2-0.7-0.5-1C27.6,25.7,26.5,24.7,25.5,23.6z"/>
		<path class="st0" d="M19,13.4c3.1,0,5.5,2.4,5.5,5.5c0,3-2.5,5.5-5.5,5.5c-3,0-5.5-2.5-5.5-5.5C13.5,15.9,16,13.4,19,13.4z"/>
	</g>
</g>
</svg>
