<?xml version="1.0" encoding="utf-8"?>
<!-- Generator: Adobe Illustrator 27.8.0, SVG Export Plug-In . SVG Version: 6.00 Build 0)  -->
<svg version="1.1" id="Layer_1" xmlns="http://www.w3.org/2000/svg" xmlns:xlink="http://www.w3.org/1999/xlink" x="0px" y="0px"
	 width="40px" height="40px" viewBox="0 0 40 40" style="enable-background:new 0 0 40 40;" xml:space="preserve">
<style type="text/css">
	.st0{fill:#FFFFFF;}
</style>
<g>
	<path class="st0" d="M15.8,0.2c2.8,0,5.6,0,8.3,0C25,0.5,25.5,1.1,25.6,2C25.7,3.3,26,4.6,26.1,6c0,0.2,0.1,0.4,0.3,0.5
		c0.7,0.4,1.4,0.8,2,1.2c0.2,0.1,0.3,0.1,0.6,0c1.3-0.5,2.6-1,3.8-1.5c1-0.4,1.9-0.1,2.4,0.8c1.2,2.1,2.4,4.2,3.6,6.3
		c0.6,1,0.4,1.9-0.5,2.6c-1.1,0.8-2.1,1.7-3.2,2.5C35,18.4,35,18.6,35,18.8c0,0.8,0,1.6,0,2.4c0,0.2,0.1,0.4,0.3,0.5
		c1.1,0.8,2.2,1.7,3.2,2.5c0.9,0.7,1,1.6,0.5,2.5c-1.2,2.1-2.4,4.2-3.7,6.3c-0.6,1-1.4,1.2-2.4,0.8c-1.3-0.5-2.5-1-3.8-1.5
		c-0.2-0.1-0.4-0.1-0.6,0c-0.7,0.4-1.3,0.8-2,1.2c-0.2,0.1-0.3,0.2-0.3,0.4c-0.2,1.4-0.4,2.7-0.6,4.1c-0.2,1.1-0.8,1.7-1.9,1.7
		c-2.4,0-4.8,0-7.3,0c-1.1,0-1.8-0.6-1.9-1.7c-0.2-1.4-0.4-2.7-0.6-4.1c0-0.2-0.1-0.3-0.3-0.4c-0.7-0.4-1.4-0.8-2.1-1.2
		c-0.1-0.1-0.4-0.1-0.5,0c-1.3,0.5-2.6,1-3.8,1.5C6.1,34.3,5.3,34,4.7,33c-1.2-2.1-2.4-4.2-3.6-6.3c-0.6-1-0.4-1.9,0.5-2.6
		c1.1-0.8,2.1-1.7,3.2-2.5C5,21.6,5,21.4,5,21.2c0-0.8,0-1.6,0-2.4c0-0.2-0.1-0.4-0.2-0.5c-1.1-0.8-2.1-1.6-3.2-2.5
		c-1-0.7-1.1-1.6-0.5-2.6C2.3,11.1,3.5,9.1,4.7,7c0.6-1,1.4-1.3,2.5-0.9c1.3,0.5,2.5,1,3.8,1.5c0.2,0.1,0.4,0.1,0.6,0
		c0.7-0.4,1.3-0.8,2-1.2c0.2-0.1,0.3-0.2,0.3-0.5c0.2-1.2,0.3-2.3,0.5-3.5c0.1-0.5,0.2-0.9,0.3-1.4C14.9,0.6,15.4,0.4,15.8,0.2z
		 M20,26.6c3.6,0,6.6-2.9,6.6-6.6c0-3.6-2.9-6.6-6.6-6.6c-3.6,0-6.6,3-6.6,6.6C13.4,23.7,16.4,26.6,20,26.6z"/>
</g>
</svg>
