<?xml version="1.0" encoding="utf-8"?>
<!-- Generator: Adobe Illustrator 27.8.0, SVG Export Plug-In . SVG Version: 6.00 Build 0)  -->
<svg version="1.1" id="Layer_1" xmlns="http://www.w3.org/2000/svg" xmlns:xlink="http://www.w3.org/1999/xlink" x="0px" y="0px"
	 width="40px" height="40px" viewBox="0 0 40 40" style="enable-background:new 0 0 40 40;" xml:space="preserve">
<style type="text/css">
	.st0{fill:#337BAE;}
</style>
<g>
	<path class="st0" d="M1.2,26.8c0.2-0.5,0.5-0.7,1-0.9c1.5-0.5,2.9-0.9,4.2-1.8c2.4-1.6,4-3.7,4.9-6.4c0.2-0.5,0.3-1,0.5-1.6
		c0.2-0.5,0.6-0.8,1.1-0.8c0.5,0,0.9,0.3,1.1,0.8c0.4,1.1,0.7,2.2,1.2,3.2c1.5,3,3.9,5,7.1,6.1c0.5,0.2,1,0.3,1.5,0.5
		c0.5,0.2,0.8,0.6,0.8,1.1c0,0.5-0.3,0.9-0.8,1.1c-1.1,0.4-2.2,0.7-3.2,1.2c-3,1.5-5,3.9-6.1,7.1c-0.2,0.5-0.3,0.9-0.4,1.4
		c-0.1,0.5-0.4,0.9-0.9,1c-0.2,0-0.3,0-0.5,0c-0.5-0.2-0.8-0.6-0.9-1.1c-0.1-0.4-0.3-0.9-0.4-1.3c-0.9-2.7-2.6-4.8-4.9-6.4
		c-1.3-0.8-2.7-1.3-4.1-1.8c-0.5-0.2-0.9-0.4-1.1-0.9C1.2,27.2,1.2,27,1.2,26.8z"/>
	<path class="st0" d="M38.8,10.8c-0.2,0.5-0.6,0.7-1,0.9c-3.5,1.3-5.9,3.7-7.2,7.2c-0.3,0.8-0.8,1.1-1.3,1c-0.5-0.1-0.7-0.4-0.9-0.8
		c-0.8-2.1-2-3.9-3.8-5.4c-1.1-0.9-2.3-1.6-3.6-2c-0.6-0.2-0.9-0.6-0.9-1.1c0-0.5,0.3-0.9,0.9-1.1c3.6-1.3,6.1-3.8,7.4-7.4
		c0.3-0.7,0.9-1,1.5-0.8c0.3,0.1,0.5,0.4,0.6,0.8c0.7,1.9,1.7,3.5,3.2,4.9c1.2,1.1,2.5,1.9,3.9,2.4c0.5,0.2,1,0.4,1.2,1
		C38.8,10.5,38.8,10.7,38.8,10.8z"/>
	<path class="st0" d="M1.2,6.8c0.2-0.5,0.5-0.7,1-0.9c1.8-0.7,3-1.9,3.7-3.7C6,2,6.1,1.7,6.2,1.6C6.8,0.9,7.8,1.2,8.1,2
		c0.4,1.2,1.2,2.3,2.2,3c0.6,0.4,1.2,0.7,1.8,1c0.5,0.2,0.7,0.6,0.7,1c0,0.5-0.3,0.8-0.7,1c0,0-0.1,0-0.1,0.1
		c-1.9,0.7-3.2,2-3.9,3.9c-0.2,0.5-0.6,0.8-1.1,0.8c-0.5,0-0.9-0.3-1.1-0.8c-0.7-1.9-2-3.2-4-3.9C1.6,8,1.3,7.7,1.2,7.3
		C1.2,7.1,1.2,7,1.2,6.8z"/>
	<path class="st0" d="M32.7,38.8c-0.5-0.2-0.7-0.5-0.9-1c-0.7-1.8-2-3-3.7-3.7c-0.4-0.2-0.8-0.4-0.9-0.8c-0.2-0.6,0.1-1.1,0.8-1.4
		c1.4-0.5,2.4-1.3,3.2-2.5c0.3-0.4,0.5-0.9,0.7-1.3c0.2-0.6,0.6-0.9,1.1-0.9c0.5,0,0.9,0.3,1.1,0.9c0.7,1.9,2,3.1,3.8,3.8
		c0.4,0.2,0.7,0.4,0.9,0.8c0,0.2,0,0.3,0,0.5c-0.2,0.5-0.5,0.7-1,0.9c-1.8,0.7-3,1.9-3.7,3.7c-0.2,0.5-0.4,0.8-0.9,1
		C33.1,38.8,32.9,38.8,32.7,38.8z"/>
</g>
</svg>
