<?xml version="1.0" encoding="utf-8"?>
<!-- Generator: Adobe Illustrator 27.8.0, SVG Export Plug-In . SVG Version: 6.00 Build 0)  -->
<svg version="1.1" id="Layer_1" xmlns="http://www.w3.org/2000/svg" xmlns:xlink="http://www.w3.org/1999/xlink" x="0px" y="0px"
	 width="40px" height="40px" viewBox="0 0 40 40" style="enable-background:new 0 0 40 40;" xml:space="preserve">
<style type="text/css">
	.st0{fill:#337BAE;}
</style>
<g>
	<path class="st0" d="M0.8,21.1c0-0.7,0-1.5,0-2.2c0-0.1,0-0.3,0.1-0.4c0.1-0.7,0.1-1.4,0.3-2.1C2,12.3,3.9,8.8,7,6
		c4.7-4.3,10.3-5.9,16.6-4.8c4.2,0.7,7.7,2.7,10.5,5.9c4,4.4,5.6,9.6,4.9,15.5c-0.6,4.6-2.7,8.4-6,11.6c-2.7,2.5-6,4.1-9.7,4.7
		c-0.7,0.1-1.4,0.2-2.1,0.3c-0.7,0-1.5,0-2.2,0c-0.1,0-0.2,0-0.4-0.1c-0.7-0.1-1.4-0.1-2.1-0.3C12.2,38,8.7,36,5.8,32.9
		c-2.5-2.7-4.1-5.9-4.7-9.6C1,22.5,0.9,21.8,0.8,21.1z M9.9,14.9c0,0.8,0.3,1.8,0.8,3c1.1,2.4,2.6,4.6,4.5,6.5
		c2.5,2.5,5.3,4.4,8.6,5.4c1.3,0.4,2.5,0.3,3.7-0.3c0.9-0.4,1.5-1.1,2.2-1.8c0.5-0.5,0.5-0.9,0-1.4c-1.1-1.1-2.2-2.2-3.3-3.3
		c-0.5-0.5-0.9-0.5-1.4,0c-0.6,0.6-1.2,1.2-1.8,1.8c-0.7,0.7-1.6,0.8-2.4,0.2c-2.2-1.5-4-3.4-5.6-5.5c-0.7-0.9-0.6-1.7,0.2-2.5
		c0.6-0.6,1.3-1.3,1.9-1.9c0.4-0.4,0.4-0.9,0-1.3c-1.1-1.2-2.3-2.3-3.4-3.4c-0.4-0.4-0.9-0.4-1.3,0c-0.4,0.3-0.7,0.7-1.1,1.1
		C10.5,12.3,9.9,13.5,9.9,14.9z"/>
</g>
</svg>
