<?xml version="1.0" encoding="utf-8"?>
<!-- Generator: Adobe Illustrator 27.8.0, SVG Export Plug-In . SVG Version: 6.00 Build 0)  -->
<svg version="1.1" id="Layer_1" xmlns="http://www.w3.org/2000/svg" xmlns:xlink="http://www.w3.org/1999/xlink" x="0px" y="0px"
	 width="40px" height="40px" viewBox="0 0 40 40" style="enable-background:new 0 0 40 40;" xml:space="preserve">
<style type="text/css">
	.st0{fill:#337BAE;stroke:#FFFFFF;stroke-width:4;stroke-miterlimit:10;}
	.st1{fill:#FFFFFF;}
</style>
<circle class="st0" cx="20" cy="20" r="19"/>
<path class="st1" d="M17,22.7c0.2-0.2,0.2-0.5,0.5-0.6c3.1-3.1,6.3-5.9,9.4-9c0.7-0.7,1.5-0.9,2.5-0.7c1.5,0.5,2,2.1,1.1,3.2
	c-0.1,0.2-0.4,0.4-0.5,0.5c-3.7,3.4-7.3,7-11,10.4c-1.3,1.2-2.5,1.3-3.7,0c-1.8-1.8-3.6-3.3-5.3-5.1c-0.9-0.9-1.1-2.2-0.1-3.1
	c0.9-0.9,2.4-0.8,3.2,0c1.1,0.9,2.1,2,3.1,3.1C16.3,21.9,16.5,22.2,17,22.7z"/>
</svg>
