<?xml version="1.0" encoding="utf-8"?>
<!-- Generator: Adobe Illustrator 27.8.0, SVG Export Plug-In . SVG Version: 6.00 Build 0)  -->
<svg version="1.1" id="Layer_1" xmlns="http://www.w3.org/2000/svg" xmlns:xlink="http://www.w3.org/1999/xlink" x="0px" y="0px"
	 width="35.6px" height="35.5px" viewBox="0 0 35.6 35.5" style="enable-background:new 0 0 35.6 35.5;" xml:space="preserve">
<style type="text/css">
	.st0{fill:#C8D4E3;}
	.st1{fill:#FFFFFF;}
	.st2{font-family:'MyriadPro-Regular';}
	.st3{font-size:12px;}
</style>
<circle class="st0" cx="17.8" cy="17.8" r="17.5"/>
<g>
	<path class="st1" d="M13.5,22.6c0.1-0.2,0.2-0.3,0.3-0.4c3.6-4.9,7.2-9.8,10.8-14.7c0.6-0.8,1.5-1.2,2.4-0.9
		c0.2,0.1,0.4,0.2,0.7,0.4c0.3,0.2,0.7,0.4,1,0.7c1.1,0.8,1.3,2,0.4,3.1c-1.1,1.5-2.2,3-3.3,4.5C22.4,19.9,19,24.4,15.7,29
		c-0.4,0.5-0.8,0.8-1.5,0.7c-0.2-0.1-0.4-0.1-0.7-0.3c-3-2.1-5.8-4.3-8.8-6.5c-1-0.8-1.3-2-0.4-3c0.2-0.4,0.5-0.7,0.7-1
		c0.7-1,2-1.2,3-0.4c1.8,1.3,3.5,2.6,5.3,3.9C13.4,22.3,13.4,22.5,13.5,22.6z"/>
</g>
<text transform="matrix(1 0 0 1 3.2188 -1.6519)" class="st2 st3">COMPLETE</text>
</svg>
