<?xml version="1.0" encoding="utf-8"?>
<!-- Generator: Adobe Illustrator 27.8.0, SVG Export Plug-In . SVG Version: 6.00 Build 0)  -->
<svg version="1.1" id="Layer_1" xmlns="http://www.w3.org/2000/svg" xmlns:xlink="http://www.w3.org/1999/xlink" x="0px" y="0px"
	 width="35.6px" height="35.5px" viewBox="0 0 35.6 35.5" style="enable-background:new 0 0 35.6 35.5;" xml:space="preserve">
<style type="text/css">
	.st0{fill:#FFFFFF;}
</style>
<g>
	<path class="st0" d="M12.5,22c0.2-0.2,0.3-0.4,0.4-0.5c5.4-5.4,10.7-10.7,16.1-16.1c0.9-0.9,2.1-1.2,3.1-0.6
		c0.3,0.1,0.5,0.3,0.8,0.5c0.4,0.3,0.7,0.7,1,1c1.2,1.2,1.2,2.8,0,4c-1.7,1.7-3.3,3.3-5,5c-5,5-10,10-15.1,15.1
		c-0.6,0.6-1.2,0.8-2,0.6c-0.3-0.1-0.5-0.3-0.7-0.5C8,27.2,4.8,24,1.6,20.8c-1.2-1.2-1.2-2.7,0-3.9c0.4-0.4,0.7-0.7,1.1-1.1
		c1.1-1.1,2.7-1.1,3.8,0c1.9,1.9,3.8,3.8,5.8,5.8C12.3,21.6,12.4,21.8,12.5,22z"/>
</g>
</svg>
