<?xml version="1.0" encoding="utf-8"?>
<!-- Generator: Adobe Illustrator 27.8.0, SVG Export Plug-In . SVG Version: 6.00 Build 0)  -->
<svg version="1.1" id="Layer_1" xmlns="http://www.w3.org/2000/svg" xmlns:xlink="http://www.w3.org/1999/xlink" x="0px" y="0px"
	 width="35.6px" height="35.5px" viewBox="0 0 35.6 35.5" style="enable-background:new 0 0 35.6 35.5;" xml:space="preserve">
<style type="text/css">
	.st0{fill:none;stroke:#C8D4E3;stroke-miterlimit:10;}
	.st1{fill:#C8D4E3;}
</style>
<rect x="1.3" y="1.2" class="st0" width="33.2" height="33.1"/>
<g>
	<path class="st1" d="M15,21.7c0.1-0.2,0.2-0.3,0.3-0.4c3.2-4.3,6.3-8.6,9.5-12.9c0.5-0.7,1.3-1,2.1-0.8c0.2,0.1,0.4,0.2,0.6,0.3
		c0.3,0.2,0.6,0.4,0.8,0.6c1,0.7,1.1,1.8,0.4,2.7c-1,1.3-2,2.7-2.9,4c-2.9,4-5.9,8-8.9,12c-0.3,0.5-0.7,0.7-1.3,0.6
		c-0.2-0.1-0.4-0.1-0.6-0.3c-2.6-1.9-5.1-3.8-7.7-5.7c-0.9-0.7-1.1-1.8-0.4-2.7c0.2-0.3,0.5-0.6,0.7-0.8c0.7-0.8,1.8-1,2.7-0.4
		c1.6,1.1,3.1,2.3,4.6,3.4C14.9,21.5,15,21.6,15,21.7z"/>
</g>
</svg>
