<?xml version="1.0" encoding="utf-8"?>
<!-- Generator: Adobe Illustrator 27.8.0, SVG Export Plug-In . SVG Version: 6.00 Build 0)  -->
<svg version="1.1" id="Layer_1" xmlns="http://www.w3.org/2000/svg" xmlns:xlink="http://www.w3.org/1999/xlink" x="0px" y="0px"
	 width="35.6px" height="35.5px" viewBox="0 0 35.6 35.5" style="enable-background:new 0 0 35.6 35.5;" xml:space="preserve">
<style type="text/css">
	.st0{fill:#FFFFFF;}
</style>
<g>
	<path class="st0" d="M13.4,24.3c0.2-0.3,0.3-0.4,0.4-0.6c4.9-6.6,9.7-13.2,14.6-19.8c0.8-1.1,2-1.6,3.2-1.2
		c0.3,0.1,0.6,0.3,0.9,0.5c0.4,0.3,0.9,0.6,1.3,0.9c1.5,1.1,1.7,2.7,0.6,4.2c-1.5,2-3,4.1-4.5,6.1c-4.5,6.2-9.1,12.3-13.6,18.5
		c-0.5,0.7-1.1,1.1-2,0.9c-0.3-0.1-0.6-0.2-0.9-0.4c-4-2.9-7.9-5.8-11.9-8.8c-1.4-1.1-1.7-2.7-0.6-4.1c0.3-0.5,0.7-0.9,1-1.3
		c1-1.3,2.7-1.6,4.1-0.6c2.4,1.7,4.7,3.5,7.1,5.2C13.2,23.9,13.3,24.1,13.4,24.3z"/>
</g>
</svg>
