<?xml version="1.0" encoding="UTF-8"?>
<svg id="Layer_1" data-name="Layer 1" xmlns="http://www.w3.org/2000/svg" viewBox="0 0 46.53 39.28">
  <path d="m22.87,38.53c-3.41-3.41-5.46-7.65-6.28-12.43-.89-5.8.2-11.13,4.16-15.64,1.84-2.12,4.23-2.87,6.96-2.25,2.66.61,4.44,2.39,5.19,4.98.82,2.94-.07,5.46-2.39,7.37-2.66,2.12-4.85,4.51-6.14,7.72-1.16,2.73-1.57,5.6-1.23,8.6.07.34.07.75.07,1.16-.07.2-.2.34-.34.48Z" fill="#48a9e5" stroke-width="0"/>
  <path d="m23.21,39.07c-.2.07-.41.2-.61.2-8.74-.07-15.7-3.55-20.14-11.27-1.5-2.59-2.32-5.46-1.78-8.53.68-3.69,4.3-6.08,7.99-5.46,3.76.61,6.35,3.96,6.01,7.72-.68,7.03,1.84,12.7,7.72,16.86.14.07.34.07.48.14h0l.2.2h0l.14.14h0Z" fill="#48a9e5" stroke-width="0"/>
  <path d="m22.87,38.53c.14-.14.2-.27.34-.34.07-.27.2-.61.2-.89.2-5.33,2.32-9.76,6.9-12.77,1.57-1.02,3.21-1.64,5.05-1.71,2.8-.14,5.05,1.98,5.12,4.78.07,2.73-2.12,4.98-4.92,4.92-1.98,0-3.96.14-5.8.96-2.53,1.02-3.82,2.18-6.14,5.53-.07-.2-.07-.34-.14-.48-.07.2-.2.34-.27.61h0l-.2-.2h0l-.2-.2h0c.07-.07.07-.14.07-.2Z" fill="#48a9e5" stroke-width="0"/>
  <path d="m0,8.76c.07-2.12,1.16-3.41,2.73-3.69,1.43-.2,2.94.61,3.41,1.98.34.89.61,1.91.82,2.87.34,1.43-.61,3-2.05,3.48-1.43.55-3.14.07-3.82-1.3-.55-1.23-.82-2.59-1.09-3.35Z" fill="#48a9e5" stroke-width="0"/>
  <path d="m35.71,3.64c-.48,1.57-1.23,3.28-2.87,4.37-1.16.75-2.73.48-3.69-.55-1.02-.96-1.3-2.39-.61-3.69.48-.89.96-1.71,1.5-2.46.82-1.16,2.32-1.57,3.62-1.16,1.16.48,2.05,1.71,2.05,3.48Z" fill="#48a9e5" stroke-width="0"/>
  <path d="m43.15,26.85c-1.43,0-2.32-.68-2.53-1.71-.2-.96.27-1.98,1.16-2.46.61-.27,1.3-.55,1.98-.68,1.16-.27,2.32.41,2.66,1.5.34,1.02-.2,2.25-1.23,2.66-.82.27-1.57.48-2.05.68Z" fill="#48a9e5" stroke-width="0"/>
</svg>