<?xml version="1.0" encoding="utf-8"?>
<!-- Generator: Adobe Illustrator 27.8.0, SVG Export Plug-In . SVG Version: 6.00 Build 0)  -->
<svg version="1.1" id="Layer_1" xmlns="http://www.w3.org/2000/svg" xmlns:xlink="http://www.w3.org/1999/xlink" x="0px" y="0px"
	 width="40px" height="40px" viewBox="0 0 40 40" style="enable-background:new 0 0 40 40;" xml:space="preserve">
<style type="text/css">
	.st0{fill:#337BAE;}
</style>
<g>
	<path class="st0" d="M38.6,6.3c-0.1,0-0.2,0-0.3,0c-12.2,0-24.3,0-36.5,0c-0.1,0-0.2,0-0.3,0c0-1.6,0-3.2,0-4.9
		c12.4,0,24.8,0,37.2,0C38.6,3.1,38.6,4.7,38.6,6.3z"/>
	<path class="st0" d="M19.6,38.6c-0.5-0.2-1.1-0.4-1.6-0.7c-0.8-0.6-1.3-1.4-1.3-2.4c0-4.2,0-8.4,0-12.6c0,0,0-0.1,0-0.1
		c2.2,0,4.3,0,6.5,0c0,0.1,0,0.3,0,0.4c0,4,0,8,0,12.1c0,1.8-1,3-2.7,3.4c0,0-0.1,0-0.1,0C20.1,38.6,19.9,38.6,19.6,38.6z"/>
	<path class="st0" d="M1.4,8.5c1.7,0,3.3,0,5,0c0,1.6,0,3.2,0,4.9c-1.7,0-3.3,0-5,0C1.4,11.7,1.4,10.1,1.4,8.5z"/>
	<path class="st0" d="M38.6,13.3c-1.7,0-3.3,0-5,0c0-1.6,0-3.2,0-4.9c1.7,0,3.3,0,5,0C38.6,10.1,38.6,11.7,38.6,13.3z"/>
	<path class="st0" d="M31.4,8.5c0,1.6,0,3.2,0,4.7c-1.2,0.3-2.3,0.6-3.5,0.9c-1.1,0.3-2.2,0.6-3.3,0.9c-0.2,0.1-0.3,0.2-0.3,0.4
		c0,1.5,0,3,0,4.5c0,0.1,0,0.3,0,0.4c-2.9,0-5.8,0-8.7,0c0-0.1,0-0.3,0-0.4c0-1.5,0-3,0-4.6c0-0.3-0.1-0.3-0.3-0.4
		c-2.1-0.6-4.3-1.2-6.4-1.7c-0.1,0-0.2-0.1-0.3-0.1c0-1.6,0-3.1,0-4.7C16.2,8.5,23.8,8.5,31.4,8.5z"/>
</g>
</svg>
