<?xml version="1.0" encoding="utf-8"?>
<!-- Generator: Adobe Illustrator 27.8.0, SVG Export Plug-In . SVG Version: 6.00 Build 0)  -->
<svg version="1.1" id="Layer_1" xmlns="http://www.w3.org/2000/svg" xmlns:xlink="http://www.w3.org/1999/xlink" x="0px" y="0px"
	 width="40px" height="40px" viewBox="0 0 40 40" style="enable-background:new 0 0 40 40;" xml:space="preserve">
<style type="text/css">
	.st0{fill:#337BAE;}
	.st1{fill:#FFFFFF;}
</style>
<circle class="st0" cx="19.9" cy="20" r="19.7"/>
<g>
	<path class="st1" d="M31.7,12.3c-0.1,0-0.1,0-0.2,0c-7.7,0-15.3,0-23,0c-0.1,0-0.1,0-0.2,0c0-1,0-2,0-3.1c7.8,0,15.6,0,23.4,0
		C31.7,10.3,31.7,11.3,31.7,12.3z"/>
	<path class="st1" d="M19.7,32.7c-0.3-0.1-0.7-0.3-1-0.4c-0.5-0.4-0.8-0.9-0.8-1.5c0-2.6,0-5.3,0-7.9v-0.1c1.4,0,2.7,0,4.1,0
		c0,0.1,0,0.2,0,0.3c0,2.5,0,5,0,7.6c0,1.1-0.6,1.9-1.7,2.1h-0.1C20,32.7,19.9,32.7,19.7,32.7z"/>
	<path class="st1" d="M8.2,13.7c1.1,0,2.1,0,3.2,0c0,1,0,2,0,3.1c-1.1,0-2.1,0-3.2,0C8.2,15.7,8.2,14.7,8.2,13.7z"/>
	<path class="st1" d="M31.7,16.7c-1.1,0-2.1,0-3.2,0c0-1,0-2,0-3.1c1.1,0,2.1,0,3.2,0C31.7,14.7,31.7,15.7,31.7,16.7z"/>
	<path class="st1" d="M27.2,13.7c0,1,0,2,0,3c-0.8,0.2-1.4,0.4-2.2,0.6c-0.7,0.2-1.4,0.4-2.1,0.6c-0.1,0.1-0.2,0.1-0.2,0.3
		c0,0.9,0,1.9,0,2.8c0,0.1,0,0.2,0,0.3c-1.8,0-3.7,0-5.5,0c0-0.1,0-0.2,0-0.3c0-0.9,0-1.9,0-2.9c0-0.2-0.1-0.2-0.2-0.3
		c-1.3-0.4-2.7-0.8-4-1.1c-0.1,0-0.1-0.1-0.2-0.1c0-1,0-2,0-3C17.6,13.7,22.4,13.7,27.2,13.7z"/>
</g>
</svg>
